<?xml version="1.0" encoding="utf-8"?>
<!-- Generator: Adobe Illustrator 23.1.1, SVG Export Plug-In . SVG Version: 6.00 Build 0)  -->
<svg version="1.1" id="Layer_1" xmlns="http://www.w3.org/2000/svg" xmlns:xlink="http://www.w3.org/1999/xlink" x="0px" y="0px"
	 viewBox="0 0 360 360" style="enable-background:new 0 0 360 360;" xml:space="preserve">
<style type="text/css">
	.st0{fill:#090909;}
	.st1{fill:#091318;}
	.st2{fill:#CFD2D3;}
	.st3{fill:#FAC8D5;}
	.st4{fill:#131526;}
	.st5{fill:#A5A7AA;}
	.st6{fill:#E5E7E8;}
	.st7{fill:#F7ADC5;}
</style>
<g>
	<path class="st0" d="M57.28,78.07c-0.09,0.26,0.11,0.7-0.43,0.65C57,78.51,57.14,78.29,57.28,78.07z"/>
	<path class="st0" d="M218.62,263.4c-23.68-0.2-46.07-2.66-68.33-6.35c-41.36-6.85-81.81-17.42-121.82-29.79
		c-5.57-1.72-8.07-8.26-5.25-13.38c1.32-2.4,1.19-5.19,1.38-7.83c0.29-3.95,0.45-7.92-0.02-11.88c-0.17-1.44,0.12-2.89,1.28-3.76
		c1.35-1.01,1.28-2.13,1.08-3.57c-0.74-5.52,0.83-10.79,1.92-16.11c2.1-10.31,4.18-20.64,7.33-30.7c1.04-3.32,1.77-6.92,5.03-9.06
		c0.24-0.16,0.4-0.58,0.45-0.9c0.91-6.39,4.42-11.93,5.91-18.14c0.54-2.27,1.18-4.5,1.36-6.84c0.16-2.05,0.79-3.9,2.64-5.08
		c0.73-0.46,0.93-1.2,1.18-1.93c2.01-5.87,4.02-11.75,6.04-17.62c0.85-2.49,0.9-5.14,1.8-7.68c1.29-3.63,3.19-5.3,7.11-4.53
		c4.23,0.83,8.45,1.8,12.58,3c15.96,4.62,31.82,3.59,47.88,0.18c6.19-1.31,11.83-2.91,17.16-6.45c4.93-3.28,10.78-4.53,16.82-4.22
		c9.69,0.5,14.65,6.44,12.71,15.9c-0.98,4.81-1.93,9.4-0.92,14.39c0.66,3.28,0.77,6.89-0.89,10.15c-0.13,0.26-0.17,0.73-0.02,0.93
		c2.1,2.94,1.2,6.21,0.82,9.31c-0.52,4.21,0.35,8.03,2.32,11.67c0.93,1.71,1.66,3.54,1.37,5.44c-0.41,2.75,1.41,4.33,3.21,4.96
		c3.59,1.26,6.14,3.97,8.69,6.25c4.15,3.69,8.55,7.13,12.52,11.08c3.49,3.47,7.16,6.92,11.4,9.77c3.58,2.4,6.26,6.05,10.68,7.52
		c1.71,0.56,2.63,2.66,3.5,4.37c0.94,1.84,2.35,2.86,4.5,2.64c1.11-0.11,1.88,0.36,2.7,1.16c1.98,1.92,4.19,3.46,7.06,3.99
		c2.69,0.5,5.46,1.13,8.01,1.78c5.39,1.37,10.68,0.7,15.99,1.06c5.34,0.37,10.7,0.36,16.06,0.51c8.48,0.25,16.9,1.07,25.21,2.75
		c6.64,1.34,11.49,4.95,13.56,11.69c0.38,1.24,0.84,2.45,1.18,3.7c0.49,1.74,0.92,3.31,2.94,4.16c1.66,0.69,2.19,2.59,2.58,4.3
		c3.24,14.06-4.4,26.76-14.77,32.82c-8.19,4.78-17.11,7.7-26.13,10.38C262.16,260.65,242.9,263.43,218.62,263.4z M233.17,188.84
		l-0.08-0.03l0.1,0.06c0.26,2.28,1.98,1.76,3.41,1.79c-0.27,1.84-1.65,1.42-2.67,1.1c-1.44-0.44-2.67-1.8-2.04-3.11
		c1.07-2.22-0.17-4.3,0.28-6.46c0.36-1.72-1.65-1.87-2.71-2.07c-1.37-0.27-1.08,0.87-0.72,1.72c-0.09,0.11-0.18,0.23-0.27,0.34
		c-1.29,1.82-3.25,2.92-4.82,4.44c-1.32,1.27-2.77,1.42-4.16,0.23c-1.36-1.16-1.7-2.66-0.51-4.12c1.56-1.91,1.62-4.31,2.35-6.49
		c0.51-1.51-1.14-1.76-1.95-2.29c-0.92-0.6-1.07,0.57-1.29,1.1c-0.81,1.92-2.67,2.87-3.96,4.34c-0.9,1.03-2.4,0.91-3.56,0
		c-1.12-0.88-1.74-2.22-1.04-3.43c0.98-1.7,0.9-3.8,1.94-5.28c0.94-1.34-1.37-3.55,1.33-4.13c0.04-0.01,0.07-0.34,0.02-0.49
		c-0.71-2.17-2.53-3.03-4.49-3.41c-1.67-0.32-2.63,0.76-3.17,2.38c-1.46,4.38-2.3,8.85-2.12,13.47c0.1,2.66-0.53,5.12-1.62,7.51
		c-2.97,6.52-6.28,12.86-9.97,19c-4.49,7.47-9.6,14.49-15.73,21.01c0.57,0.17,0.86,0.29,1.17,0.34c9.54,1.55,19.18,2.18,28.81,2.92
		c1.19,0.09,1.92-0.55,2.66-1.3c2.67-2.71,5.31-5.43,8.02-8.09c9.78-9.62,19.1-19.71,29.66-28.52c1.1-0.92,1.31-1.97,0.96-3.22
		c-0.61-2.17-2.15-3.49-4.14-4.33c-1.93-0.82-2.14-0.67-1.85,1.4c0.05,0.33,0,0.42-0.2,0.49c-1.98,0.73-2.21,2.96-3.6,4.19
		c-0.13-0.29,0.27-1.08-0.45-0.78C235.47,189.62,234.34,189.25,233.17,188.84z M151.26,136.51c-1.3,0.83-1.18,1.95-0.5,3.05
		c0.74,1.2,1.82,1.53,3.35,0.75c-2.58-0.23-2.49-2.21-2.89-3.86c0.11,0.03,0.22,0.06,0.33,0.09c0.01-0.07,0.01-0.14,0.02-0.21
		C151.47,136.38,151.37,136.44,151.26,136.51z M184.52,155.56c-1.23,0.92-1.04,2.06-0.33,3.12c0.7,1.05,1.72,1.34,3.7,0.76
		c-2.47-0.77-3.73-1.77-3.46-3.83l0.05,0.05L184.52,155.56z M162.63,112.73c-1.19,0.41-0.37,1.32-0.49,1.99
		c-0.01,1.03-0.01,2.07-0.02,3.1c0,0.18,0,0.35,0,0.53c-0.01,0.34-0.02,0.68-0.03,1.01c-0.08,1.55-0.16,3.11-0.24,4.66
		c-0.13,0.53-0.35,1.08,0.23,1.74c1.64-1.46,3.21-2.85,4.78-4.24c3.06-2.09,3.08-2.11,0.59-4.7
		C165.97,115.31,164.58,113.69,162.63,112.73z M163.15,87.37c-1.98-0.22-2.45,0.51-1.99,2.48c0.53,2.24,0.72,4.57,0.84,6.88
		c0.28,5.44,0.2,5.34,5.59,3.8c2.44-0.69,3.79-1.79,3.32-4.46C171.6,89.36,169.33,86.82,163.15,87.37z M170.4,81.55
		c1.18-2.91,1.84-5.91,1.7-9.06c-0.19-4.46-2.2-7.1-6.55-8.05c-9.42-2.04-17.3,1.47-24.58,7.11c2.69,0.18,5.18,1.02,7.72,1.62
		c4.73,1.82,8.19,4.77,9.55,9.95c0.43,1.65,1.56,3.18,4.01,2.19c1.55-0.63,3.37-0.97,5.04-0.87
		C169.58,84.57,170.31,83.53,170.4,81.55z M127.86,79.47c-13.23,5.03-26.82,5.62-40.66,3.4c-7.84-1.26-15.53-3.01-22.96-5.87
		c-0.57-0.22-1.34-0.85-1.5,0.43c-0.67,5.17-2.92,9.88-4.26,14.85c-1.87,3.56-1.02,5.95,2.7,7.19c1.37,0.46,2.8,0.76,4.3,0.78
		c4.49,0.06,8.93-0.57,13.35-1.16c15.27-2.02,30.28-5.37,45.17-9.28c4.84-1.27,8.59-5.36,9.09-9.82c0.09-0.84,0.25-2-0.19-2.48
		c-0.69-0.75-1.51,0.3-2.26,0.59C129.69,78.48,128.79,79.01,127.86,79.47z M98.93,144.97c-7.92-1.63-15.23-4.95-22.51-8.31
		c-9.08-4.2-17.95-8.81-26.75-13.56c-1.53-0.83-2.56-1.31-3.33,1.03c-0.78,2.35-0.96,4.8-1.73,7.12c-0.46,1.37,0.03,2.13,1.23,2.93
		c13.84,9.28,27.19,19.25,40.66,29.05c2.61,1.89,4.53,4.23,5.73,7.17c0.91,2.23,1.8,4.48,2.52,6.78c3.1,9.83,4.74,19.97,6.19,30.13
		c0.23,1.63,0.81,2.39,2.39,2.75c2.77,0.62,5.57,1.28,8.23,2.24c1.8,0.65,2.52,0.34,2.54-1.88c0.23,1.95,0.9,2.86,2.72,3.32
		c17.82,4.51,35.67,8.84,53.83,11.78c1.94,0.31,3.18-0.13,4.49-1.55c10.07-10.8,17.24-23.45,23.71-36.57
		c1.64-3.33,0.95-4.91-2.44-6.56c-5.56-2.71-10.39-6.11-13.49-11.63c-0.63-1.12-1.49-2.12-2.29-3.13
		c-7.15-9.07-16.15-15.05-27.69-17.17c-5.69-1.05-10.99-3-11.31-10.24c-0.06-1.25-0.91-0.69-1.48-0.44
		c-9.2,4.02-18.88,5.97-28.84,6.73C107.19,145.05,103.06,145.34,98.93,144.97z M217.97,251.2c11.76,0.13,28.36-1.06,44.79-4.27
		c19.34-3.78,37.62-10.17,53.78-21.77c2.66-1.91,5.15-4.06,7.71-6.11c1.56-1.25,0.99-2.99,0.49-4.3c-0.45-1.18-1.32,0.24-2.01,0.43
		c-0.57,0.16-1.02,0.17-1.32-0.38c-0.24-0.45-0.04-0.83,0.34-1.11c0.42-0.31,0.83-0.64,1.29-0.86c1.93-0.93,1.43-2.33,0.65-3.67
		c-0.84-1.45-1.94-1.25-3.29-0.48c-4.26,2.45-8.67,4.63-13.17,6.62c-21.61,9.53-44.45,13.75-67.82,15.42
		c-28.8,2.06-57.29-0.65-85.52-6.4c-29.19-5.94-57.73-14.43-86.41-22.33c-11.22-3.09-22.34-6.6-33.69-9.23
		c-1.5-0.35-2.98-0.93-4.57-0.47c-0.79,0.23-1.53,0.59-1.52,1.52c0,0.89,0.27,1.71,1.4,1.86c0.51,0.06,1,0.26,1.5,0.39
		c0.81,0.2,1.94,0.29,1.61,1.45c-0.29,1.03-1.27,0.59-1.98,0.31c-2-0.76-2.45-0.03-2.35,1.97c0.2,4.23-0.07,8.47-0.97,12.63
		c-0.42,1.92-0.02,2.77,2,3.46c32.3,11.01,65.19,19.84,98.71,26.23C155.82,247.5,184.23,251.12,217.97,251.2z M157.03,112.66
		c-0.25-2.63-2.55-4.49-5.19-4.67c-1.75-0.12-3.04-0.83-3.59-2.45c-0.49-1.45-0.34-2.91,0.95-4.02c1.36-1.16,2.87-1.19,4.33-0.36
		c1.72,0.98,3.71,0.69,5.48,1.35c0.76,0.29,1.15,0,1.16-0.8c0.02-4.92,0.26-9.87-1.6-14.56c-1.01-2.56-2.53-3.31-5.35-2.73
		c-13.44,2.75-26.51,6.97-39.87,10.04c-18.94,4.35-37.97,8.05-57.51,8.04c-2.48,0-3.81,0.56-3.91,3.11
		c-0.15,4.03-1.52,7.77-2.75,11.53c-0.64,1.95-1.02,3.03,1.59,4.46c9.7,5.29,19.52,10.31,29.57,14.85
		c6.25,2.82,12.48,5.87,19.48,6.62c0.99,0.11,1.87,0.29,2.64-0.49c4.9-4.96,11.31-7.13,17.58-9.57c11.09-4.32,22.2-8.62,32.55-14.58
		c2.46-1.42,4.96-2.85,6.68-5.22c0.47-0.64,1.19-1.37-0.02-2.14C158.06,110.33,157.58,110.93,157.03,112.66z M30.32,178.99
		c0.09,1.23,0.1,1.75,0.16,2.26c0.74,6.81,3.18,9.57,9.73,11.26c5.35,1.38,10.66,2.88,15.98,4.37c13.78,3.85,27.55,7.72,41.32,11.59
		c1.31,0.37,1.94,0.29,1.6-1.4c-0.54-2.62-0.79-5.29-1.25-7.93c-1.62-9.45-3.41-18.86-7.15-27.76c-1.09-2.58-2.63-4.78-4.96-6.48
		c-12.98-9.46-25.87-19.06-39.16-28.08c-4.95-3.36-4.97-3.34-6.94,2.56c-2.87,8.62-4.66,17.5-6.59,26.36
		C32.04,170.37,31.13,175.02,30.32,178.99z M232.9,208.67c-0.52-2.51-1.37-1.42-2.16-0.63c-3.85,3.84-7.71,7.68-11.55,11.54
		c-2.07,2.08-4.15,4.15-6.15,6.31c-0.69,0.74-1.42,1.73-1.01,2.79c0.43,1.14,1.64,0.69,2.53,0.72c20.72,0.56,41.22-1.25,61.45-5.8
		c12.42-2.8,24.44-6.78,35.84-12.51c6.19-3.11,7.92-9.29,4.45-15.28c-0.98-1.68-2.2-3.35-3.93-3.99c-1.48-0.54-2.71-1.45-4.14-1.99
		c-0.43-0.16-1.18-0.59-1.28,0.17c-0.69,5.27-5.36,5.78-8.94,7.03c-10.49,3.64-21.41,5.34-32.49,5.82
		c-5.04,0.22-9.38,1.36-12.68,5.71c-3.15,4.15-7.92,4.64-12.73,3.93c-2.35-0.35-3.71-2.03-3.91-4.52c-0.14-1.79,0.2-3.53,0.59-5.42
		C233.35,204.93,233.06,205.37,232.9,208.67z M324.18,221.61c-0.68,0.51-1.38,0.99-2.03,1.53c-5.83,4.8-12.16,8.84-18.88,12.24
		c-20.2,10.23-41.91,14.74-64.26,16.65c-16.03,1.37-32.08,1.2-48.14,0.2c-16.05-0.99-31.98-2.91-47.82-5.51
		c-30.27-4.97-60.04-12.13-89.4-21.02c-8.76-2.65-17.48-5.39-26.12-8.43c-0.75-0.27-1.68-1.03-2.31-0.03
		c-0.64,1.02,0,1.99,0.71,2.79c0.79,0.9,1.93,1.12,2.99,1.45c17.65,5.44,35.38,10.58,53.29,15.12
		c39.04,9.88,78.38,18.05,118.72,20.32c22.52,1.27,44.88,0.08,66.95-4.79c19.1-4.21,36.97-11.22,52.64-23.24
		C322.9,227.06,323.84,224.64,324.18,221.61z M193.17,155.19c-0.54,3.35-3.33,3.62-5.23,5c-1.82,1.32-4.01,0.93-5.23-0.8
		c-1.2-1.7-0.72-3.88,1.13-5.18c3.69-2.57,3.99-6.21,0.76-9.18c-0.38-0.35-0.8-0.66-1.17-1.02c-1.16-1.13-2-1.48-2.59,0.56
		c-0.94,3.23-3.95,4.16-6.61,5.23c-1.6,0.65-3.01-0.38-3.85-1.88c-0.82-1.45-0.56-2.85,0.51-4.06c0.39-0.44,0.93-0.76,1.46-1.05
		c1.57-0.86,1.97-2.5,2.08-3.94c0.1-1.32-1.58-1.38-2.55-1.75c-1.93-0.74-3.93-1.28-5.9-1.91c-0.58-0.18-1.28-0.49-1.71,0.04
		c-2.56,3.16-6.64,3.84-9.75,6.09c-1.66,1.21-3.84,0.79-5.02-0.87c-1.16-1.63-0.95-4.11,0.84-5c3.25-1.62,5.18-4.72,8.11-6.65
		c0.57-0.38,1.19-0.82,1.29-1.55c0.5-3.87,0.34-7.73,0.39-12.06c-4.66,4-9.45,6.54-14.37,8.84c-1.09,0.51-1.58,1.21-1.66,2.36
		c-0.2,3.27-0.57,6.54-0.62,9.81c-0.11,6.94,1.6,9.17,8.42,10.45c14.51,2.72,25.53,10.52,33.38,22.83
		c3.46,5.42,8.57,8.33,14.24,10.63c0.46,0.19,1.16,0.88,1.52,0c0.23-0.57,0.35-1.39-0.31-1.91c-0.44-0.35-1.17-0.27-1.27-0.55
		c3.14-0.98,1.38-3.73,2.38-5.52c-0.51,0.09-0.7,0.07-0.8,0.16c-2.35,1.88-4.15,2.04-5.7,0.51c-1.53-1.52-1.26-3.26,0.49-5.69
		c1.15-1.6,2.11-3.66,1.4-5.52C196.4,159.48,194.8,157.69,193.17,155.19z M242.3,210.95c3.94-0.16,7.3-0.82,9.57-3.92
		c2.81-3.85,6.68-5.59,11.33-5.81c8.82-0.42,17.55-1.46,26.14-3.53c4.78-1.15,9.55-2.38,13.87-4.86c0.88-0.5,2.01-1.14,1.85-2.28
		c-0.17-1.26-1.36-1.61-2.55-1.77c-2.05-0.27-4.09-0.68-6.14-0.92c-11.86-1.39-23.79-1.36-35.71-1.79
		c-3.54-0.13-7.4,1.69-10.73-1.13c-0.48-0.41-1.48-0.2-1.94,0.29c-0.49,0.52,0.26,1.06,0.44,1.59c1.04,2.96,0.58,4.57-1.97,6.45
		c-4.2,3.1-7.62,6.72-8.48,12.17C237.38,209.27,238.79,210.99,242.3,210.95z M104.75,143.21c4.73,0.28,8.96-0.49,13.22-0.94
		c7.69-0.82,14.98-3.01,22.06-6.04c0.73-0.31,1.31-0.58,1.45-1.56c0.31-2.22,0.5-4.43,0.52-6.68c0.01-1.64-0.45-1.95-1.96-1.26
		c-8.07,3.68-16.36,6.83-24.63,10.03C111.62,138.21,107.99,139.92,104.75,143.21z M142.6,74.27c-2.18-0.01-4.28,0.48-6.36,1.04
		c-0.57,0.15-1.34,0.28-0.99,1.14c1.13,2.78,2.37,5.52,3.46,8.31c0.53,1.36,1.42,0.92,2.32,0.69c3.09-0.77,6.18-1.54,9.26-2.33
		c1.14-0.29,2.26-0.74,3.42-0.87c0.42-0.05,1.03,0.39,1.38-0.05c0.39-0.5-0.18-0.93-0.42-1.34
		C151.97,76.24,147.76,74.37,142.6,74.27z M162.93,103.93c1.53,0.95,2.97,1.71,4.26,2.67c1.25,0.94,2.35,2.09,3.56,3.19
		C172.11,104.34,170.05,100.48,162.93,103.93z M170.83,129.26c1.23,0.43,2.8,1.46,3.41,0.65c0.82-1.09,0.3-2.81-0.42-4.38
		C172.76,126.86,171.86,127.97,170.83,129.26z M174.44,148.44c-1.23-0.78-1.79-2.14-2.82-3.48
		C171.32,147.43,172.29,148.46,174.44,148.44z M210.51,176.37c0.99,2.64,1.5,2.87,3.47,1.74
		C212.92,177.57,211.86,177.04,210.51,176.37z M206,158.74c-0.1,1.02-0.69,1.92,0.25,2.46c0.46,0.26,1.43,0,1.5-0.51
		C207.89,159.78,207.02,159.33,206,158.74z"/>
	<path class="st0" d="M79.63,244.42c-0.21-0.07-0.48-0.15-0.28-0.42c0.05-0.07,0.39,0.06,0.59,0.1
		C79.84,244.21,79.73,244.31,79.63,244.42z"/>
	<path class="st1" d="M111.32,144.97c9.96-0.77,19.64-2.71,28.84-6.73c0.58-0.25,1.43-0.8,1.48,0.44
		c0.32,7.24,5.62,9.19,11.31,10.24c11.53,2.12,20.54,8.1,27.69,17.17c0.8,1.02,1.67,2.01,2.29,3.13c3.09,5.52,7.92,8.92,13.49,11.63
		c3.4,1.65,4.08,3.23,2.44,6.56c-6.47,13.13-13.64,25.78-23.71,36.57c-1.32,1.41-2.56,1.86-4.49,1.55
		c-18.16-2.94-36.02-7.27-53.83-11.78c-1.81-0.46-2.49-1.38-2.72-3.32c-0.03,2.22-0.74,2.53-2.54,1.88
		c-2.67-0.96-5.46-1.62-8.23-2.24c-1.59-0.36-2.16-1.11-2.39-2.75c-1.45-10.17-3.09-20.31-6.19-30.13c-0.72-2.3-1.61-4.55-2.52-6.78
		c-1.2-2.94-3.12-5.28-5.73-7.17c-13.47-9.8-26.82-19.77-40.66-29.05c-1.2-0.81-1.69-1.57-1.23-2.93c0.77-2.32,0.95-4.77,1.73-7.12
		c0.77-2.34,1.8-1.86,3.33-1.03c8.8,4.75,17.67,9.37,26.75,13.56c7.28,3.36,14.58,6.69,22.51,8.31c0.22,0.24,0.45,0.7,0.67,0.7
		c3.69,0.05,7.38,0.05,11.08,0.01C110.9,145.69,111.1,145.22,111.32,144.97z"/>
	<path class="st2" d="M217.97,251.2c-33.73-0.08-62.15-3.7-90.36-9.08c-33.52-6.4-66.4-15.23-98.71-26.23
		c-2.02-0.69-2.42-1.55-2-3.46c0.9-4.15,1.17-8.39,0.97-12.63c-0.09-2,0.36-2.73,2.35-1.97c0.72,0.27,1.69,0.71,1.98-0.31
		c0.33-1.16-0.8-1.25-1.61-1.45c-0.5-0.12-0.99-0.32-1.5-0.39c-1.13-0.14-1.39-0.97-1.4-1.86c0-0.92,0.73-1.29,1.52-1.52
		c1.59-0.46,3.07,0.12,4.57,0.47c11.35,2.63,22.46,6.14,33.69,9.23c28.69,7.91,57.22,16.39,86.41,22.33
		c28.24,5.75,56.72,8.46,85.52,6.4c23.37-1.67,46.21-5.89,67.82-15.42c4.5-1.99,8.9-4.17,13.17-6.62c1.34-0.77,2.44-0.97,3.29,0.48
		c0.78,1.34,1.29,2.74-0.65,3.67c-0.46,0.22-0.87,0.55-1.29,0.86c-0.38,0.28-0.59,0.66-0.34,1.11c0.3,0.55,0.75,0.54,1.32,0.38
		c0.69-0.19,1.56-1.61,2.01-0.43c0.5,1.3,1.06,3.05-0.49,4.3c-2.56,2.05-5.05,4.2-7.71,6.11c-16.16,11.6-34.44,17.99-53.78,21.77
		C246.33,250.14,229.73,251.33,217.97,251.2z M105.7,218.01c-0.22-0.05-0.66,0.23-0.83,0.76c-0.19,0.59,0.23,0.99,0.74,1.14
		c2.3,0.68,4.6,1.33,6.91,1.96c0.58,0.16,1.05-0.12,1.23-0.66c0.2-0.61-0.27-0.99-0.76-1.14
		C110.69,219.4,108.38,218.77,105.7,218.01z M83.29,212.07c-0.13-0.19-0.26-0.62-0.5-0.7c-2.52-0.78-5.05-1.53-7.6-2.23
		c-0.48-0.13-0.81,0.34-0.86,0.76c-0.07,0.59,0.36,0.95,0.88,1.11c2.21,0.66,4.42,1.29,6.63,1.94
		C82.55,213.15,82.99,212.88,83.29,212.07z M213.2,237.72c0-0.02,0-0.04,0-0.06c-1.12,0-2.25-0.03-3.37,0.01
		c-0.56,0.02-1.02,0.31-1.03,0.92c-0.01,0.62,0.46,0.95,1,0.97c2.42,0.09,4.83,0.12,7.25,0.16c0.48,0.01,0.87-0.35,0.93-0.76
		c0.09-0.59-0.33-0.99-0.9-1.03C215.79,237.82,214.49,237.78,213.2,237.72z M313.33,220.33c2.1-1.15,4.42-2.41,6.72-3.73
		c0.19-0.11,0.26-0.65,0.18-0.92c-0.13-0.43-0.57-0.71-1.01-0.49c-2.36,1.2-4.7,2.43-7.02,3.7c-0.17,0.09-0.23,0.64-0.14,0.91
		C312.19,220.22,312.56,220.45,313.33,220.33z M62.93,205.98c-0.15-0.19-0.31-0.6-0.56-0.68c-2.43-0.8-4.87-1.55-7.32-2.28
		c-0.46-0.14-0.85,0.2-1,0.62c-0.23,0.61,0.2,1.02,0.68,1.17c2.27,0.74,4.56,1.44,6.85,2.12C62.26,207.14,62.7,206.79,62.93,205.98z
		 M73.04,209.04c-0.13-0.17-0.28-0.56-0.53-0.64c-2.43-0.8-4.87-1.56-7.32-2.29c-0.44-0.13-0.84,0.16-1,0.6
		c-0.22,0.61,0.15,1.03,0.65,1.2c2.27,0.74,4.55,1.45,6.84,2.12C72.33,210.21,72.86,209.95,73.04,209.04z M223.84,239.73
		c0-0.02,0-0.03,0-0.05c1.2,0,2.39,0.01,3.59,0c0.56-0.01,1.03-0.21,1.09-0.83c0.07-0.64-0.37-0.96-0.93-0.96
		c-2.39-0.01-4.78,0.02-7.17,0.07c-0.54,0.01-1.05,0.34-1,0.95c0.05,0.56,0.5,0.83,1.09,0.83
		C221.62,239.73,222.73,239.73,223.84,239.73z M178.7,234.88c-0.45-0.08-1.31-0.3-1.51,0.58c-0.25,1.12,0.73,1.14,1.5,1.24
		c2.05,0.28,4.1,0.56,6.14,0.85c0.67,0.09,1.29-0.07,1.4-0.78c0.11-0.74-0.51-1.04-1.15-1.12
		C183.04,235.38,180.99,235.15,178.7,234.88z M300.07,224.3c-2.33,0.89-4.72,1.79-7.09,2.74c-0.37,0.15-0.69,0.55-0.46,1.05
		c0.24,0.52,0.67,0.8,1.24,0.59c2.24-0.83,4.46-1.68,6.68-2.55c0.5-0.2,0.87-0.59,0.67-1.19
		C300.96,224.49,300.61,224.27,300.07,224.3z M142.75,229.87c0.85,0.08,1.53,0.24,1.73-0.56c0.19-0.76-0.35-1.04-0.99-1.2
		c-2.15-0.54-4.3-1.08-6.45-1.64c-0.66-0.17-1.26-0.09-1.46,0.61c-0.2,0.72,0.3,1.05,0.96,1.22
		C138.71,228.84,140.86,229.39,142.75,229.87z M163.74,234.33c0.63,0.13,1.25,0.1,1.5-0.59c0.28-0.77-0.29-1.13-0.9-1.26
		c-2.26-0.47-4.54-0.89-6.81-1.3c-0.65-0.12-1.26,0.04-1.31,0.83c-0.04,0.6,0.42,0.85,0.97,0.97
		C159.37,233.42,161.55,233.88,163.74,234.33z M45.06,199.9c-0.61-0.01-0.98,0.18-1.13,0.62c-0.21,0.6,0.11,1.03,0.64,1.2
		c2.27,0.74,4.56,1.44,6.85,2.13c0.53,0.16,1.05-0.01,1.26-0.58c0.23-0.61-0.15-1.01-0.66-1.18C49.67,201.33,47.3,200.6,45.06,199.9
		z M242.13,238.98c2.15-0.22,4.29-0.43,6.43-0.66c0.63-0.07,1.27-0.3,1.17-1.08c-0.11-0.79-0.8-0.79-1.42-0.74
		c-2.15,0.18-4.3,0.38-6.44,0.56c-0.65,0.06-1.29,0.26-1.27,0.99C240.64,238.97,241.39,239.03,242.13,238.98z M303.79,224.83
		c2.09-1.04,4.47-2.21,6.83-3.44c0.27-0.14,0.38-0.56,0.15-0.92c-0.27-0.41-0.68-0.64-1.09-0.45c-2.27,1.02-4.53,2.07-6.77,3.15
		c-0.38,0.18-0.68,0.55-0.48,1.04C302.59,224.66,302.95,224.86,303.79,224.83z M123.93,223.3c0,0-0.29-0.19-0.61-0.28
		c-2.4-0.69-4.8-1.37-7.22-2.02c-0.43-0.12-0.87,0.1-1.02,0.58c-0.21,0.64,0.2,1.01,0.71,1.17c2.31,0.68,4.64,1.34,6.97,1.94
		C123.42,224.86,123.95,224.6,123.93,223.3z M194.58,238.57c0.66-0.09,2.01,0.56,2.18-0.72c0.17-1.32-1.24-1.11-2.11-1.21
		c-1.78-0.22-3.57-0.35-5.36-0.53c-0.71-0.07-1.52-0.09-1.64,0.76c-0.13,0.88,0.66,1.07,1.37,1.14
		C190.81,238.2,192.6,238.37,194.58,238.57z M153.28,232.18c0.72,0.19,1.45,0.2,1.59-0.71c0.11-0.75-0.54-0.98-1.15-1.11
		c-2.09-0.46-4.18-0.89-6.26-1.37c-0.75-0.17-1.45-0.17-1.58,0.72c-0.1,0.71,0.5,1,1.14,1.13
		C149.1,231.28,151.19,231.74,153.28,232.18z M283.74,231.9c2.11-0.66,4.49-1.39,6.86-2.18c0.51-0.17,0.85-0.63,0.54-1.23
		c-0.21-0.4-0.59-0.66-1.06-0.51c-2.38,0.73-4.76,1.47-7.13,2.24c-0.46,0.15-0.63,0.57-0.5,1.04
		C282.59,231.74,282.97,231.9,283.74,231.9z M258.73,235.2c-2.12,0.28-4.25,0.55-6.37,0.83c-0.64,0.08-1.24,0.28-1.14,1.07
		c0.1,0.76,0.69,0.9,1.35,0.81c2.12-0.29,4.24-0.57,6.36-0.87c0.71-0.1,1.46-0.32,1.26-1.24
		C260.04,235.09,259.37,235.03,258.73,235.2z M202.64,237.27c0-0.01,0-0.02,0-0.03c-1.03-0.06-2.06-0.11-3.09-0.18
		c-0.66-0.05-1.25,0.1-1.34,0.84c-0.07,0.61,0.46,0.98,0.97,1.02c2.4,0.19,4.81,0.32,7.21,0.42c0.55,0.02,0.98-0.31,0.94-0.97
		c-0.05-0.68-0.56-0.8-1.09-0.84C205.05,237.43,203.84,237.36,202.64,237.27z M234.96,237.57c0,0.04,0,0.08,0,0.12
		c-1.2,0-2.4-0.01-3.59,0c-0.64,0.01-1.26,0.16-1.3,0.92c-0.04,0.79,0.58,1,1.22,0.96c2.31-0.11,4.61-0.25,6.92-0.41
		c0.56-0.04,1.01-0.33,0.95-0.95c-0.06-0.61-0.56-0.82-1.12-0.8C237.01,237.46,235.99,237.52,234.96,237.57z M35.02,197.16
		c-0.37-0.04-1.07-0.2-1.32,0.53c-0.33,0.95,0.49,1.19,1.12,1.37c2.06,0.6,4.14,1.14,6.22,1.68c0.61,0.16,1.27,0.19,1.45-0.6
		c0.18-0.78-0.45-1.06-1.03-1.23C39.39,198.33,37.31,197.79,35.02,197.16z M281,231.74c-0.15-0.74-0.65-0.93-1.32-0.77
		c-2.16,0.5-4.33,1.02-6.49,1.55c-0.61,0.15-1.24,0.45-1.09,1.17c0.14,0.69,0.77,0.84,1.44,0.68c2.16-0.52,4.33-1.02,6.48-1.57
		C280.52,232.67,280.98,232.4,281,231.74z M173.83,236.06c0.76-0.01,1.62,0.34,1.83-0.61c0.25-1.17-0.8-1.15-1.5-1.28
		c-1.95-0.37-3.91-0.63-5.86-0.99c-0.76-0.14-1.48-0.17-1.6,0.74c-0.12,0.93,0.67,1.02,1.38,1.14
		C170.03,235.39,171.98,235.74,173.83,236.06z M132.76,227.33c0.54,0,1.24,0.19,1.39-0.64c0.14-0.77-0.48-0.99-1.09-1.14
		c-2.06-0.53-4.13-1.04-6.19-1.61c-0.65-0.18-1.24-0.22-1.5,0.47c-0.28,0.75,0.28,1.09,0.9,1.25
		C128.42,226.22,130.57,226.77,132.76,227.33z M102.16,218.94c0.45,0.06,1.09,0.17,1.35-0.58c0.2-0.59-0.15-1.01-0.7-1.17
		c-2.31-0.69-4.62-1.38-6.95-2.02c-0.55-0.15-1.06,0.06-1.15,0.69c-0.09,0.6,0.29,0.92,0.85,1.09
		C97.72,217.59,99.86,218.24,102.16,218.94z M85.92,212.18c-0.66-0.07-1.19-0.03-1.4,0.56c-0.22,0.63,0.2,1,0.71,1.16
		c2.3,0.7,4.61,1.37,6.92,2.02c0.54,0.15,1.06-0.01,1.15-0.66c0.06-0.44-0.11-0.85-0.6-1C90.4,213.55,88.1,212.85,85.92,212.18z
		 M269.6,233.34c-2.56,0.45-4.77,0.83-6.98,1.25c-0.53,0.1-1.03,0.42-0.92,1.04c0.13,0.76,0.73,0.87,1.39,0.75
		c2.12-0.39,4.24-0.8,6.36-1.19c0.63-0.12,1.26-0.33,1.18-1.09C270.55,233.29,269.88,233.3,269.6,233.34z"/>
	<path class="st3" d="M157.03,112.66c0.55-1.73,1.03-2.33,2.2-1.59c1.21,0.77,0.49,1.5,0.02,2.14c-1.72,2.37-4.22,3.81-6.68,5.22
		c-10.35,5.96-21.46,10.25-32.55,14.58c-6.27,2.44-12.68,4.62-17.58,9.57c-0.76,0.77-1.65,0.59-2.64,0.49
		c-6.99-0.75-13.23-3.8-19.48-6.62c-10.05-4.54-19.87-9.56-29.57-14.85c-2.61-1.42-2.23-2.5-1.59-4.46
		c1.23-3.77,2.6-7.51,2.75-11.53c0.1-2.55,1.43-3.11,3.91-3.11c19.54,0.01,38.57-3.69,57.51-8.04c13.36-3.07,26.43-7.29,39.87-10.04
		c2.83-0.58,4.34,0.17,5.35,2.73c1.86,4.7,1.62,9.65,1.6,14.56c0,0.8-0.39,1.09-1.16,0.8c-1.77-0.66-3.76-0.37-5.48-1.35
		c-1.46-0.83-2.97-0.79-4.33,0.36c-1.3,1.11-1.45,2.57-0.95,4.02c0.55,1.62,1.84,2.32,3.59,2.45
		C154.48,108.17,156.78,110.03,157.03,112.66z M149.66,94.94c0.09-0.14,0.19-0.29,0.28-0.43c1.49-1.09,0.69-2.13-0.22-2.94
		c-1.05-0.93-2.24-0.79-3.14,0.33c-0.87,1.08-0.87,2.28,0.16,3.21C147.66,95.93,148.78,96.54,149.66,94.94z"/>
	<path class="st3" d="M30.32,178.99c0.82-3.97,1.73-8.62,2.73-13.25c1.93-8.85,3.72-17.74,6.59-26.36c1.97-5.89,1.99-5.92,6.94-2.56
		c13.29,9.03,26.18,18.62,39.16,28.08c2.33,1.7,3.88,3.9,4.96,6.48c3.74,8.9,5.54,18.31,7.15,27.76c0.45,2.64,0.71,5.31,1.25,7.93
		c0.35,1.69-0.29,1.77-1.6,1.4c-13.77-3.87-27.54-7.74-41.32-11.59c-5.32-1.49-10.64-2.98-15.98-4.37
		c-6.54-1.69-8.99-4.45-9.73-11.26C30.42,180.74,30.4,180.22,30.32,178.99z"/>
	<path class="st3" d="M232.9,208.67c0.16-3.3,0.45-3.75,3.89-6.13c-0.39,1.88-0.73,3.63-0.59,5.42c0.2,2.49,1.56,4.18,3.91,4.52
		c4.8,0.71,9.58,0.22,12.73-3.93c3.3-4.35,7.64-5.49,12.68-5.71c11.08-0.48,22.01-2.17,32.49-5.82c3.58-1.24,8.25-1.76,8.94-7.03
		c0.1-0.76,0.85-0.33,1.28-0.17c1.43,0.54,2.66,1.45,4.14,1.99c1.73,0.63,2.95,2.31,3.93,3.99c3.47,5.99,1.74,12.17-4.45,15.28
		c-11.39,5.73-23.41,9.71-35.84,12.51c-20.24,4.55-40.73,6.36-61.45,5.8c-0.89-0.02-2.09,0.42-2.53-0.72
		c-0.41-1.07,0.32-2.05,1.01-2.79c1.99-2.15,4.07-4.23,6.15-6.31c3.84-3.86,7.7-7.69,11.55-11.54
		C231.54,207.25,232.38,206.16,232.9,208.67z"/>
	<path class="st3" d="M237.21,189.89c1.39-1.23,1.62-3.46,3.6-4.19c0.2-0.07,0.24-0.16,0.2-0.49c-0.29-2.06-0.08-2.21,1.85-1.4
		c1.99,0.85,3.54,2.16,4.14,4.33c0.35,1.26,0.14,2.3-0.96,3.22c-10.56,8.81-19.88,18.9-29.66,28.52c-2.71,2.66-5.36,5.38-8.02,8.09
		c-0.74,0.75-1.47,1.39-2.66,1.3c-9.63-0.73-19.26-1.36-28.81-2.92c-0.31-0.05-0.61-0.17-1.17-0.34
		c6.13-6.52,11.24-13.54,15.73-21.01c3.69-6.14,7-12.48,9.97-19c1.09-2.39,1.73-4.84,1.62-7.51c-0.18-4.62,0.66-9.09,2.12-13.47
		c0.54-1.61,1.5-2.7,3.17-2.38c1.96,0.38,3.78,1.24,4.49,3.41c0.05,0.15,0.02,0.48-0.02,0.49c-2.7,0.58-0.39,2.79-1.33,4.13
		c-1.03,1.48-0.96,3.58-1.94,5.28c-0.71,1.22-0.09,2.55,1.04,3.43c1.16,0.91,2.65,1.03,3.56,0c1.29-1.47,3.15-2.42,3.96-4.34
		c0.22-0.52,0.37-1.7,1.29-1.1c0.81,0.53,2.47,0.78,1.95,2.29c-0.74,2.17-0.79,4.58-2.35,6.49c-1.19,1.45-0.85,2.95,0.51,4.12
		c1.39,1.19,2.84,1.04,4.16-0.23c1.57-1.52,3.53-2.61,4.82-4.44c0.52,0.34,0.93,1.04,1.73,0.52c-0.3-0.69-0.99-0.59-1.46-0.86
		c-0.36-0.85-0.65-1.99,0.72-1.72c1.06,0.2,3.06,0.35,2.71,2.07c-0.45,2.16,0.79,4.24-0.28,6.46c-0.63,1.3,0.61,2.67,2.04,3.11
		c1.02,0.31,2.4,0.74,2.67-1.1c0.11,0.05,0.14,0.12,0.09,0.23c0.68-0.07,0.88-0.41,0.6-1.03L237.21,189.89z"/>
	<path class="st3" d="M324.18,221.61c-0.34,3.03-1.28,5.45-3.66,7.28c-15.67,12.02-33.54,19.03-52.64,23.24
		c-22.08,4.86-44.43,6.05-66.95,4.79c-40.34-2.27-79.68-10.44-118.72-20.32c-17.91-4.53-35.64-9.67-53.29-15.12
		c-1.06-0.33-2.2-0.55-2.99-1.45c-0.71-0.81-1.35-1.77-0.71-2.79c0.63-1,1.55-0.24,2.31,0.03c8.63,3.04,17.36,5.78,26.12,8.43
		c29.36,8.88,59.13,16.05,89.4,21.02c15.84,2.6,31.78,4.52,47.82,5.51c16.06,1,32.11,1.16,48.14-0.2
		c22.35-1.9,44.06-6.42,64.26-16.65c6.72-3.4,13.05-7.44,18.88-12.24C322.8,222.6,323.5,222.12,324.18,221.61z"/>
	<path class="st3" d="M193.17,155.19c1.63,2.5,3.23,4.3,4.03,6.4c0.71,1.86-0.24,3.92-1.4,5.52c-1.75,2.43-2.02,4.17-0.49,5.69
		c1.54,1.53,3.35,1.37,5.7-0.51c0.11-0.08,0.3-0.06,0.8-0.16c-1,1.79,0.76,4.53-2.38,5.52c0.1,0.29,0.84,0.2,1.27,0.55
		c0.66,0.52,0.54,1.34,0.31,1.91c-0.36,0.88-1.05,0.19-1.52,0c-5.66-2.31-10.78-5.21-14.24-10.63
		c-7.85-12.31-18.87-20.12-33.38-22.83c-6.81-1.27-8.53-3.51-8.42-10.45c0.05-3.27,0.42-6.54,0.62-9.81
		c0.07-1.14,0.57-1.85,1.66-2.36c4.92-2.3,9.71-4.84,14.37-8.84c-0.04,4.32,0.11,8.19-0.39,12.06c-0.09,0.74-0.72,1.18-1.29,1.55
		c-2.93,1.93-4.86,5.04-8.11,6.65c-1.79,0.89-2,3.37-0.84,5c1.18,1.65,3.36,2.07,5.02,0.87c3.11-2.25,7.19-2.94,9.75-6.09
		c0.43-0.53,1.13-0.22,1.71-0.04c1.97,0.63,3.97,1.17,5.9,1.91c0.98,0.37,2.65,0.43,2.55,1.75c-0.11,1.45-0.51,3.08-2.08,3.94
		c-0.52,0.29-1.07,0.61-1.46,1.05c-1.07,1.21-1.33,2.61-0.51,4.06c0.84,1.5,2.25,2.53,3.85,1.88c2.66-1.07,5.67-2,6.61-5.23
		c0.59-2.04,1.44-1.69,2.59-0.56c0.37,0.36,0.79,0.67,1.17,1.02c3.23,2.98,2.93,6.61-0.76,9.18c-1.85,1.29-2.33,3.48-1.13,5.18
		c1.22,1.73,3.41,2.13,5.23,0.8C189.84,158.81,192.63,158.54,193.17,155.19z"/>
	<path class="st1" d="M242.3,210.95c-3.51,0.04-4.92-1.68-4.32-5.52c0.86-5.46,4.28-9.07,8.48-12.17c2.54-1.88,3.01-3.49,1.97-6.45
		c-0.19-0.53-0.93-1.07-0.44-1.59c0.46-0.48,1.46-0.7,1.94-0.29c3.33,2.82,7.19,1,10.73,1.13c11.91,0.43,23.84,0.41,35.71,1.79
		c2.06,0.24,4.09,0.65,6.14,0.92c1.2,0.16,2.38,0.51,2.55,1.77c0.16,1.14-0.97,1.78-1.85,2.28c-4.31,2.48-9.08,3.71-13.87,4.86
		c-8.59,2.07-17.33,3.11-26.14,3.53c-4.65,0.22-8.52,1.96-11.33,5.81C249.6,210.13,246.24,210.79,242.3,210.95z"/>
	<path class="st3" d="M58.48,92.28c1.34-4.97,3.6-9.68,4.26-14.85c0.17-1.28,0.94-0.65,1.5-0.43c7.42,2.86,15.12,4.61,22.96,5.87
		c13.84,2.23,27.43,1.63,40.66-3.4c0.1,1.37-0.37,2.52-1.26,3.55c-2.02,2.33-4.46,4.04-7.31,5.19c-10.95,4.42-22.55,5.54-34.15,6.1
		C76.23,94.75,67.18,95.37,58.48,92.28z"/>
	<path class="st4" d="M58.48,92.28c8.7,3.09,17.75,2.47,26.66,2.04c11.6-0.56,23.2-1.67,34.15-6.1c2.85-1.15,5.29-2.86,7.31-5.19
		c0.89-1.03,1.36-2.19,1.26-3.55c0.92-0.46,1.82-1,2.78-1.37c0.75-0.29,1.57-1.34,2.26-0.59c0.45,0.49,0.29,1.65,0.19,2.48
		c-0.5,4.47-4.25,8.55-9.09,9.82c-14.89,3.91-29.9,7.26-45.17,9.28c-4.41,0.58-8.85,1.22-13.35,1.16c-1.5-0.02-2.93-0.32-4.3-0.78
		C57.46,98.23,56.61,95.85,58.48,92.28z"/>
	<path class="st4" d="M104.75,143.21c3.24-3.29,6.88-4.99,10.66-6.46c8.27-3.19,16.56-6.35,24.63-10.03
		c1.51-0.69,1.97-0.37,1.96,1.26c-0.02,2.24-0.22,4.46-0.52,6.68c-0.14,0.98-0.71,1.25-1.45,1.56c-7.08,3.03-14.37,5.21-22.06,6.04
		C113.71,142.72,109.48,143.48,104.75,143.21z"/>
	<path class="st5" d="M148.69,73.18c-2.54-0.6-5.02-1.45-7.72-1.62c7.28-5.64,15.16-9.15,24.58-7.11c4.36,0.94,6.36,3.58,6.55,8.05
		c0.13,3.15-0.52,6.15-1.7,9.06c-1.36-0.45-1.16-1.75-1.48-2.76c-0.83-2.6-2.38-4.56-4.96-5.57
		C158.89,71.21,153.79,71.64,148.69,73.18z"/>
	<path class="st2" d="M148.69,73.18c5.09-1.54,10.2-1.97,15.27,0.04c2.57,1.01,4.13,2.97,4.96,5.57c0.32,1.01,0.11,2.31,1.48,2.76
		c-0.09,1.98-0.81,3.02-3.11,2.89c-1.67-0.1-3.48,0.24-5.04,0.87c-2.45,0.99-3.58-0.54-4.01-2.19
		C156.88,77.95,153.42,75,148.69,73.18z"/>
	<path class="st3" d="M142.6,74.27c5.16,0.1,9.37,1.97,12.07,6.59c0.24,0.42,0.81,0.85,0.42,1.34c-0.35,0.44-0.96,0-1.38,0.05
		c-1.16,0.13-2.27,0.58-3.42,0.87c-3.09,0.78-6.17,1.55-9.26,2.33c-0.9,0.23-1.79,0.67-2.32-0.69c-1.09-2.79-2.34-5.53-3.46-8.31
		c-0.35-0.86,0.42-0.99,0.99-1.14C138.32,74.76,140.41,74.26,142.6,74.27z"/>
	<path class="st2" d="M170.91,96.07c0.48,2.67-0.88,3.77-3.32,4.46c-5.39,1.53-5.31,1.64-5.59-3.8c-0.12-2.31-0.32-4.64-0.84-6.88
		c-0.46-1.98,0.01-2.71,1.99-2.48c0.38,1.72,2.14,1.86,3.24,2.69C168.53,91.65,169.11,94.3,170.91,96.07z"/>
	<path class="st2" d="M162.93,103.93c7.12-3.45,9.18,0.41,7.82,5.87c-1.21-1.1-2.31-2.25-3.56-3.19
		C165.91,105.64,164.46,104.88,162.93,103.93z"/>
	<path class="st2" d="M162.09,119.37c0.01-0.34,0.02-0.68,0.03-1.01c0.06-0.05,0.19-0.12,0.18-0.16c-0.04-0.13-0.12-0.25-0.18-0.38
		c0.01-1.03,0.01-2.07,0.02-3.1c0.24-0.01,0.49-0.02,0.73-0.03c0.91,0.12,1.15,0.81,1.47,1.55c0.77,1.79,1.67,3.53,2.51,5.28
		c-1.57,1.39-3.14,2.79-4.78,4.24c-0.58-0.66-0.35-1.21-0.23-1.74C163.24,122.55,162.83,120.97,162.09,119.37z"/>
	<path class="st5" d="M170.91,96.07c-1.8-1.77-2.39-4.42-4.52-6.02c-1.11-0.83-2.86-0.97-3.24-2.69
		C169.33,86.82,171.6,89.36,170.91,96.07z"/>
	<path class="st5" d="M166.85,121.53c-0.85-1.76-1.74-3.49-2.51-5.28c-0.32-0.74-0.56-1.43-1.47-1.55
		c-0.08-0.65-0.16-1.31-0.24-1.96c1.95,0.96,3.34,2.58,4.81,4.1C169.94,119.42,169.91,119.44,166.85,121.53z"/>
	<path class="st2" d="M170.83,129.26c1.03-1.28,1.92-2.4,2.99-3.73c0.72,1.57,1.24,3.3,0.42,4.38
		C173.64,130.71,172.06,129.69,170.83,129.26z"/>
	<path d="M111.32,144.97c-0.21,0.25-0.42,0.72-0.64,0.72c-3.69,0.04-7.38,0.03-11.08-0.01c-0.23,0-0.45-0.46-0.67-0.7
		C103.06,145.34,107.19,145.05,111.32,144.97z"/>
	<path class="st2" d="M184.45,155.6c-0.28,2.07,0.97,3.07,3.45,3.84c-1.98,0.58-3,0.29-3.7-0.76c-0.71-1.07-0.9-2.2,0.33-3.12
		L184.45,155.6z"/>
	<path class="st5" d="M151.23,136.44c0.39,1.65,0.3,3.63,2.89,3.86c-1.52,0.79-2.6,0.45-3.35-0.75c-0.68-1.1-0.81-2.22,0.5-3.05
		L151.23,136.44z"/>
	<path class="st2" d="M236.6,190.66c-1.43-0.03-3.15,0.49-3.41-1.79l-0.02-0.04c1.17,0.42,2.3,0.79,3.59,0.27
		c0.73-0.29,0.33,0.49,0.45,0.78c0,0,0.07-0.03,0.07-0.03c-0.5,0.17-1.04,0.31-0.6,1.03C236.74,190.78,236.71,190.7,236.6,190.66z"
		/>
	<path class="st2" d="M174.44,148.44c-2.15,0.02-3.12-1-2.82-3.48C172.65,146.29,173.21,147.66,174.44,148.44z"/>
	<path class="st2" d="M210.51,176.37c1.35,0.68,2.41,1.21,3.47,1.74C212.01,179.23,211.49,179.01,210.51,176.37z"/>
	<path class="st5" d="M206,158.74c1.02,0.59,1.88,1.04,1.76,1.95c-0.07,0.51-1.04,0.77-1.5,0.51
		C205.31,160.67,205.9,159.76,206,158.74z"/>
	<path class="st6" d="M162.09,119.37c0.74,1.6,1.15,3.18-0.24,4.66C161.93,122.48,162.01,120.93,162.09,119.37z"/>
	<path class="st6" d="M162.63,112.73c0.08,0.65,0.16,1.31,0.24,1.96c-0.24,0.01-0.49,0.02-0.73,0.03
		C162.26,114.05,161.44,113.14,162.63,112.73z"/>
	<path class="st2" d="M184.52,155.56l-0.04,0.1c0,0-0.05-0.05-0.04-0.06C184.45,155.6,184.52,155.56,184.52,155.56z"/>
	<path class="st5" d="M151.26,136.51c0.1-0.06,0.21-0.13,0.31-0.19c-0.01,0.07-0.01,0.14-0.02,0.21c-0.11-0.03-0.22-0.06-0.33-0.09
		C151.23,136.44,151.26,136.51,151.26,136.51z"/>
	<path class="st6" d="M162.12,117.83c0.06,0.12,0.14,0.24,0.18,0.38c0.01,0.03-0.12,0.1-0.18,0.16
		C162.12,118.18,162.12,118,162.12,117.83z"/>
	<polygon class="st2" points="233.18,188.87 233.09,188.81 233.17,188.83 	"/>
	<path class="st4" d="M105.7,218.01c2.68,0.76,4.99,1.39,7.29,2.07c0.49,0.15,0.96,0.52,0.76,1.14c-0.18,0.53-0.64,0.82-1.23,0.66
		c-2.31-0.64-4.62-1.28-6.91-1.96c-0.51-0.15-0.93-0.55-0.74-1.14C105.03,218.24,105.47,217.96,105.7,218.01z"/>
	<path class="st4" d="M83.29,212.07c-0.3,0.81-0.74,1.08-1.45,0.88c-2.21-0.65-4.43-1.27-6.63-1.94c-0.51-0.15-0.95-0.52-0.88-1.11
		c0.05-0.42,0.38-0.89,0.86-0.76c2.54,0.7,5.08,1.45,7.6,2.23C83.03,211.45,83.16,211.88,83.29,212.07z"/>
	<path class="st4" d="M213.2,237.72c1.29,0.06,2.59,0.1,3.88,0.2c0.58,0.05,1,0.44,0.9,1.03c-0.06,0.41-0.45,0.77-0.93,0.76
		c-2.42-0.03-4.84-0.07-7.25-0.16c-0.54-0.02-1.01-0.34-1-0.97c0.01-0.62,0.47-0.91,1.03-0.92c1.12-0.04,2.24-0.01,3.37-0.01
		C213.2,237.68,213.2,237.7,213.2,237.72z"/>
	<path class="st4" d="M313.33,220.33c-0.77,0.12-1.14-0.11-1.28-0.53c-0.09-0.27-0.03-0.81,0.14-0.91c2.32-1.27,4.66-2.5,7.02-3.7
		c0.44-0.22,0.88,0.05,1.01,0.49c0.08,0.27,0.01,0.82-0.18,0.92C317.75,217.92,315.42,219.18,313.33,220.33z"/>
	<path class="st4" d="M62.93,205.98c-0.23,0.81-0.67,1.15-1.36,0.95c-2.29-0.68-4.58-1.38-6.85-2.12c-0.48-0.16-0.91-0.56-0.68-1.17
		c0.16-0.41,0.54-0.76,1-0.62c2.45,0.73,4.89,1.48,7.32,2.28C62.62,205.38,62.78,205.79,62.93,205.98z"/>
	<path class="st4" d="M73.04,209.04c-0.18,0.91-0.71,1.17-1.36,0.98c-2.29-0.67-4.57-1.38-6.84-2.12c-0.5-0.16-0.87-0.59-0.65-1.2
		c0.16-0.44,0.56-0.73,1-0.6c2.45,0.73,4.89,1.49,7.32,2.29C72.76,208.48,72.91,208.87,73.04,209.04z"/>
	<path class="st0" d="M223.84,239.73c-1.11,0-2.22,0-3.33,0c-0.58,0-1.04-0.27-1.09-0.83c-0.05-0.61,0.46-0.93,1-0.95
		c2.39-0.06,4.78-0.08,7.17-0.07c0.56,0,1,0.32,0.93,0.96c-0.06,0.62-0.54,0.83-1.09,0.83c-1.2,0.01-2.39,0-3.59,0
		C223.84,239.7,223.84,239.71,223.84,239.73z"/>
	<path class="st4" d="M178.7,234.88c2.29,0.27,4.34,0.51,6.39,0.77c0.64,0.08,1.26,0.38,1.15,1.12c-0.11,0.7-0.73,0.87-1.4,0.78
		c-2.05-0.28-4.1-0.57-6.14-0.85c-0.77-0.11-1.76-0.12-1.5-1.24C177.39,234.57,178.25,234.8,178.7,234.88z"/>
	<path class="st4" d="M300.07,224.3c0.55-0.03,0.9,0.19,1.04,0.63c0.2,0.61-0.16,1-0.67,1.19c-2.22,0.87-4.45,1.72-6.68,2.55
		c-0.57,0.21-1-0.07-1.24-0.59c-0.23-0.49,0.1-0.9,0.46-1.05C295.34,226.09,297.74,225.19,300.07,224.3z"/>
	<path class="st4" d="M142.75,229.87c-1.9-0.48-4.05-1.04-6.2-1.57c-0.66-0.16-1.16-0.5-0.96-1.22c0.2-0.7,0.79-0.78,1.46-0.61
		c2.15,0.56,4.3,1.1,6.45,1.64c0.64,0.16,1.18,0.44,0.99,1.2C144.29,230.11,143.61,229.95,142.75,229.87z"/>
	<path class="st4" d="M163.73,234.33c-2.18-0.45-4.36-0.91-6.54-1.35c-0.55-0.11-1.01-0.37-0.97-0.97c0.05-0.79,0.66-0.94,1.31-0.83
		c2.28,0.41,4.55,0.83,6.81,1.3c0.61,0.13,1.18,0.49,0.9,1.26C164.99,234.44,164.36,234.46,163.73,234.33z"/>
	<path class="st4" d="M45.06,199.9c2.24,0.7,4.6,1.42,6.95,2.19c0.51,0.17,0.89,0.57,0.66,1.18c-0.22,0.57-0.73,0.73-1.26,0.58
		c-2.29-0.68-4.57-1.39-6.85-2.13c-0.52-0.17-0.85-0.6-0.64-1.2C44.09,200.08,44.46,199.89,45.06,199.9z"/>
	<path class="st4" d="M242.13,238.98c-0.73,0.05-1.49-0.01-1.53-0.93c-0.03-0.72,0.61-0.93,1.27-0.99c2.15-0.18,4.3-0.39,6.44-0.56
		c0.62-0.05,1.31-0.05,1.42,0.74c0.11,0.78-0.54,1.01-1.17,1.08C246.42,238.55,244.27,238.76,242.13,238.98z"/>
	<path class="st0" d="M303.79,224.83c-0.83,0.03-1.2-0.17-1.37-0.61c-0.2-0.49,0.1-0.86,0.48-1.04c2.25-1.08,4.5-2.13,6.77-3.15
		c0.42-0.19,0.83,0.04,1.09,0.45c0.23,0.36,0.12,0.78-0.15,0.92C308.26,222.61,305.88,223.79,303.79,224.83z"/>
	<path class="st4" d="M123.93,223.3c0.02,1.3-0.51,1.56-1.17,1.39c-2.33-0.61-4.66-1.26-6.97-1.94c-0.51-0.15-0.92-0.53-0.71-1.17
		c0.16-0.48,0.59-0.7,1.02-0.58c2.41,0.64,4.82,1.33,7.22,2.02C123.64,223.11,123.93,223.3,123.93,223.3z"/>
	<path class="st4" d="M194.58,238.57c-1.99-0.2-3.77-0.37-5.56-0.55c-0.71-0.07-1.5-0.26-1.37-1.14c0.12-0.85,0.93-0.84,1.64-0.76
		c1.79,0.18,3.57,0.32,5.36,0.53c0.87,0.11,2.28-0.1,2.11,1.21C196.6,239.13,195.24,238.48,194.58,238.57z"/>
	<path class="st4" d="M153.28,232.18c-2.09-0.45-4.18-0.9-6.27-1.33c-0.64-0.13-1.24-0.43-1.14-1.13c0.13-0.89,0.83-0.9,1.58-0.72
		c2.08,0.48,4.18,0.91,6.26,1.37c0.61,0.13,1.26,0.37,1.15,1.11C154.73,232.39,154,232.37,153.28,232.18z"/>
	<path class="st4" d="M283.74,231.9c-0.77,0.01-1.15-0.16-1.29-0.64c-0.14-0.48,0.04-0.89,0.5-1.04c2.37-0.77,4.75-1.51,7.13-2.24
		c0.47-0.14,0.85,0.11,1.06,0.51c0.31,0.6-0.02,1.06-0.54,1.23C288.23,230.51,285.85,231.23,283.74,231.9z"/>
	<path class="st4" d="M258.73,235.2c0.64-0.17,1.3-0.11,1.46,0.6c0.2,0.92-0.54,1.14-1.26,1.24c-2.12,0.3-4.24,0.58-6.36,0.87
		c-0.66,0.09-1.25-0.05-1.35-0.81c-0.1-0.79,0.5-0.99,1.14-1.07C254.49,235.75,256.61,235.47,258.73,235.2z"/>
	<path class="st4" d="M202.64,237.27c1.2,0.08,2.4,0.16,3.61,0.25c0.53,0.04,1.04,0.16,1.09,0.84c0.05,0.66-0.39,0.99-0.94,0.97
		c-2.41-0.1-4.81-0.23-7.21-0.42c-0.51-0.04-1.04-0.4-0.97-1.02c0.08-0.74,0.67-0.89,1.34-0.84c1.03,0.07,2.06,0.12,3.09,0.18
		C202.64,237.25,202.64,237.26,202.64,237.27z"/>
	<path class="st0" d="M234.96,237.57c1.03-0.05,2.05-0.12,3.08-0.15c0.56-0.02,1.06,0.19,1.12,0.8c0.06,0.62-0.39,0.91-0.95,0.95
		c-2.31,0.15-4.61,0.29-6.92,0.41c-0.64,0.03-1.26-0.18-1.22-0.96c0.04-0.76,0.66-0.91,1.3-0.92c1.2-0.01,2.4,0,3.59,0
		C234.96,237.65,234.96,237.61,234.96,237.57z"/>
	<path class="st4" d="M35.02,197.16c2.29,0.62,4.37,1.17,6.43,1.76c0.58,0.17,1.21,0.45,1.03,1.23c-0.18,0.79-0.84,0.76-1.45,0.6
		c-2.08-0.54-4.16-1.09-6.22-1.68c-0.63-0.18-1.45-0.42-1.12-1.37C33.95,196.96,34.65,197.13,35.02,197.16z"/>
	<path class="st0" d="M281,231.74c-0.02,0.65-0.48,0.93-0.98,1.06c-2.15,0.55-4.32,1.05-6.48,1.57c-0.66,0.16-1.3,0.01-1.44-0.68
		c-0.15-0.73,0.48-1.02,1.09-1.17c2.16-0.53,4.32-1.04,6.49-1.55C280.35,230.81,280.85,231.01,281,231.74z"/>
	<path class="st4" d="M173.83,236.06c-1.85-0.32-3.8-0.67-5.75-0.99c-0.71-0.12-1.5-0.21-1.38-1.14c0.12-0.9,0.84-0.88,1.6-0.74
		c1.95,0.36,3.91,0.62,5.86,0.99c0.7,0.13,1.75,0.11,1.5,1.28C175.45,236.4,174.59,236.05,173.83,236.06z"/>
	<path class="st0" d="M132.76,227.33c-2.19-0.56-4.34-1.11-6.48-1.67c-0.62-0.16-1.18-0.5-0.9-1.25c0.26-0.69,0.84-0.65,1.5-0.47
		c2.05,0.57,4.12,1.08,6.19,1.61c0.61,0.16,1.22,0.37,1.09,1.14C134,227.52,133.31,227.34,132.76,227.33z"/>
	<path class="st4" d="M102.16,218.94c-2.3-0.7-4.44-1.36-6.59-2c-0.56-0.17-0.94-0.49-0.85-1.09c0.09-0.63,0.6-0.84,1.15-0.69
		c2.32,0.65,4.64,1.33,6.95,2.02c0.55,0.17,0.9,0.58,0.7,1.17C103.25,219.11,102.61,219,102.16,218.94z"/>
	<path class="st4" d="M85.92,212.18c2.18,0.67,4.48,1.37,6.77,2.08c0.49,0.15,0.67,0.55,0.6,1c-0.09,0.66-0.61,0.82-1.15,0.66
		c-2.31-0.65-4.62-1.32-6.92-2.02c-0.51-0.16-0.93-0.53-0.71-1.16C84.73,212.14,85.26,212.11,85.92,212.18z"/>
	<path class="st0" d="M269.6,233.34c0.28-0.04,0.95-0.05,1.04,0.76c0.08,0.76-0.55,0.97-1.18,1.09c-2.12,0.39-4.24,0.8-6.36,1.19
		c-0.66,0.12-1.27,0.01-1.39-0.75c-0.1-0.62,0.39-0.94,0.92-1.04C264.83,234.17,267.04,233.79,269.6,233.34z"/>
	<path class="st4" d="M149.66,94.94c-0.88,1.61-2,1-2.92,0.17c-1.03-0.93-1.03-2.13-0.16-3.21c0.91-1.12,2.09-1.27,3.14-0.33
		c0.91,0.81,1.71,1.85,0.22,2.94c0.54-1.05,0.16-1.8-0.79-2.33c-0.74-0.41-1.36-0.04-1.8,0.49c-0.48,0.57-0.46,1.28-0.01,1.89
		C147.98,95.41,148.82,95.19,149.66,94.94z"/>
	<path class="st6" d="M149.66,94.94c-0.84,0.26-1.68,0.47-2.32-0.38c-0.45-0.61-0.47-1.32,0.01-1.89c0.45-0.53,1.06-0.9,1.8-0.49
		c0.95,0.53,1.33,1.28,0.79,2.33C149.85,94.65,149.76,94.79,149.66,94.94z"/>
	<path class="st0" d="M228.74,181.84c0.48,0.27,1.16,0.18,1.46,0.86c-0.8,0.52-1.22-0.18-1.73-0.52
		C228.55,182.07,228.64,181.95,228.74,181.84z"/>
	<path class="st0" d="M236.68,190.89c-0.45-0.72,0.1-0.86,0.6-1.03C237.56,190.48,237.36,190.82,236.68,190.89z"/>
	<g>
		<g>
			<path d="M124.17,272.41c-0.27,0.93-1.09,3.3-2.53,4.1c-1.43,0.83-2.62,0.63-3.41,0.46c-0.7-0.16-3.23-1-4.08-1.4
				c-0.86-0.37-2.21-1.43-3.23-2.81c-0.94-1.33-1.95-2.97-2.56-4.59c-0.63-1.68-0.61-3.11-0.4-3.95c0.2-0.82,0.58-2.06,0.63-2.18
				c0.05-0.15,0.13-0.09,0.26-0.04c0.14,0.05,2.65,0.93,3.03,1.06c0.41,0.14,0.16-0.03,0.08-0.14c-0.06-0.1-0.24-0.36-0.49-0.87
				c-0.28-0.52-0.42-0.82-0.75-1.86c-0.37-1.03-0.37-1.87-0.24-2.89c0.11-0.97,0.37-1.94,1.1-2.96c0.73-1.02,1.61-1.49,2.5-1.9
				c0.93-0.45,1.81-0.53,3.08-0.36c1.22,0.12,2.31,0.69,3.15,1.24c0.91,0.53,1.49,1.41,2.17,2.3c0.71,0.89,0.93,1.3,1.59,2.39
				c0.69,1.07,1.41,2.56,1.88,3.67c0.47,1.08,0.49,2.24,0.41,2.79c-0.06,0.7-0.35,1.49-0.42,1.74c-0.07,0.23-0.22,0.35-0.37,0.36
				c-0.19,0.03-1.01-0.22-1.4-0.34c-0.41-0.13-1.69-0.58-1.77-0.6c-0.07-0.05-0.08-0.03-0.02,0.05c0.06,0.1,0.33,0.6,0.91,1.85
				c0.57,1.22,0.92,2.26,1.07,2.8C124.48,270.83,124.44,271.5,124.17,272.41z M120.31,264.51c-0.43-1.13-1.27-2.71-3.16-3.7
				c-1.84-0.98-2.39-1.49-2.55-2.41c-0.16-0.92,0.45-1.82,1.17-2.1c0.7-0.29,1.92-0.23,2.71,0.7c0.8,0.88,0.41,2.55,0.38,2.63
				c-0.03,0.1-0.04,0.13,0.15,0.19c0.21,0.08,2.85,1.04,2.99,1.08c0.13,0.04,0.18,0.09,0.24-0.09c0.06-0.18,0.35-0.94,0.41-1.97
				c0.03-1.01-0.02-2.19-0.94-3.49c-0.92-1.33-2.03-2.09-3.51-2.59c-1.44-0.49-3.26-0.19-4.31,0.35c-1.04,0.58-2.1,1.37-2.52,2.62
				c-0.39,1.26-0.59,2.9,0.02,4.26c0.58,1.38,1.48,2.12,2.29,2.62c0.8,0.5,1.93,1.03,2.36,1.48c0.45,0.48,1.03,1.12,0.68,2.28
				c-0.32,1.17-1.56,1.68-2.86,1.15c-1.29-0.49-1.69-1.47-1.67-2.16c0.01-0.66,0.18-1.25,0.23-1.37c0.03-0.1-0.02-0.12-0.16-0.17
				c-0.14-0.04-2.99-1.03-3.12-1.09c-0.16-0.06-0.17-0.03-0.2,0.04c-0.04,0.12-0.38,1.32-0.38,2.36c0.1,1.02,0.2,2.23,1.36,3.67
				c1.19,1.43,2.3,1.86,3.44,2.19c1.08,0.31,2.77,0.57,4.54-0.44c1.73-0.99,2.08-2.15,2.4-3.07
				C120.6,266.56,120.66,265.59,120.31,264.51z"/>
			<path d="M141.77,282.65c-0.13,0.43-0.27,0.53-0.43,0.55c-0.18-0.01-4.04-0.96-4.39-1.05c-0.28-0.1-0.42-0.16-0.67-0.38
				c-0.2-0.21-2.32-2.24-2.55-2.52c-0.21-0.27-0.22-0.19-0.28,0.01c-0.06,0.25-0.34,1.33-0.41,1.61c-0.08,0.31-0.24,0.24-0.51,0.19
				c-0.27-0.03-4.66-1.25-4.82-1.34c-0.17-0.05-0.26-0.07-0.42-0.26c-0.14-0.2-2.51-3.6-2.68-3.84c-0.18-0.22-0.18-0.33-0.1-0.61
				c0.06-0.23,2.04-7.14,2.52-8.81c0.52-1.69,2.77-9.2,2.82-9.35c0.09-0.19,0.12-0.21,0.37-0.17c0.24,0.05,3.57,0.98,3.89,1.06
				c0.33,0.06,0.43,0.2,0.64,0.4c0.19,0.22,2.36,2.28,2.67,2.66c0.25,0.37,0.21,0.19,0.25,0.01c0.05-0.2,0.42-1.5,0.47-1.7
				c0.07-0.26,0.09-0.25,0.31-0.19c0.27,0.08,3.94,1.04,4.34,1.13c0.37,0.12,0.46,0.19,0.64,0.4c0.14,0.14,0.63,0.67,1.24,1.46
				c0.6,0.82,0.81,1.3,1,1.56c0.22,0.29,0.16,0.42,0.08,0.88C145.68,264.8,141.85,282.24,141.77,282.65z M137.84,277.98
				c0.03-0.18,4.15-17.44,4.19-17.57c0-0.11-0.04-0.17-0.18-0.21c-0.16-0.04-2.99-0.65-3.1-0.68c-0.08-0.02-0.13-0.03-0.19,0.19
				c-0.07,0.25-2.34,9.08-2.42,9.38c-0.09,0.33-0.11,0.65-0.28-0.05c-0.15-0.69-0.75-4.56-1.01-5.97c-0.27-1.38-0.84-4.68-0.86-4.8
				c-0.02-0.14-0.01-0.17-0.14-0.2c-0.11-0.02-3.27-0.85-3.46-0.88c-0.19-0.03-0.16,0.06-0.18,0.14c-0.01,0.13-2.17,7.46-2.83,9.65
				c-0.66,2.19-2.12,7.47-2.16,7.6c-0.04,0.15-0.09,0.19,0.05,0.24c0.14,0.05,3.21,0.87,3.39,0.86c0.2,0.06,0.24,0.12,0.3-0.22
				c0.09-0.33,2.6-9.8,2.71-10.18c0.11-0.41,0.17-0.09,0.18,0.1c0.01,0.18,2.09,11.49,2.18,11.69c0.07,0.21,0.05,0.26,0.23,0.3
				c0.17,0.05,3.18,0.71,3.35,0.74C137.76,278.17,137.8,278.16,137.84,277.98z"/>
			<path d="M163.01,271.95c-0.06,0.18-0.06,0.2-0.23,0.2c-0.22-0.02-6-1.1-6.13-1.17c-0.19-0.04-0.19-0.04-0.13,0.08
				c0.08,0.15,1.81,3.44,1.86,3.53c0.07,0.12,0.06,0.15,0.04,0.25c-0.02,0.13-0.43,2.95-0.45,3.08c-0.02,0.1-0.03,0.16-0.09,0.2
				c-0.06,0.02-0.12,0.03-0.06,0.15c0.06,0.1,3.18,4.03,3.29,4.18c0.07,0.14,0.09,0.17,0.07,0.3c0.01,0.11-0.55,3.62-0.59,3.85
				c-0.04,0.23-0.1,0.25-0.3,0.22c-0.24,0.04-12.37-2.14-12.51-2.25c-0.14-0.03-0.17-0.06-0.27-0.16c-0.11-0.1-3.24-4.09-3.3-4.19
				c-0.04-0.09-0.2-0.18-0.15-0.41c0.05-0.23,4.18-17.9,4.22-18.19c0.01-0.19,0.1-0.22,0.35-0.19c0.22,0.06,11.44,2.39,11.64,2.35
				c0.16,0.03,0.21,0.06,0.33,0.17c0.11,0.11,2.85,3.36,3,3.54c0.14,0.18,0.08,0.2,0.05,0.38
				C163.59,268.02,163.04,271.74,163.01,271.95z M159.45,264.3c0.01-0.08,0.06-0.15-0.11-0.18c-0.14,0.01-10.3-2.11-10.43-2.2
				c-0.16-0.04-0.22-0.02-0.26,0.16c-0.05,0.2-4.16,17.47-4.12,17.61c-0.03,0.13-0.03,0.13,0.11,0.16
				c0.14,0.07,11.35,2.27,11.59,2.25c0.17,0.03,0.16-0.05,0.15-0.16c-0.01-0.13,0.53-3.01,0.56-3.14c0.02-0.13,0-0.16-0.14-0.19
				c-0.18,0.02-7.29-1.37-7.45-1.44c-0.14-0.06-0.15-0.11-0.13-0.24c0-0.16,0.69-3.38,0.72-3.51c-0.01-0.11,0.09-0.17,0.24-0.17
				c0.2,0.02,3.69,0.73,3.86,0.75c0.14,0.03,0.14,0,0.16-0.1c0.02-0.1,0.63-3.02,0.65-3.12c0.05-0.12,0.05-0.1-0.04-0.11
				c-0.08-0.01-3.86-0.83-3.99-0.86c-0.11-0.02-0.13-0.08-0.11-0.18c0.02-0.1,0.64-3.25,0.68-3.43c0.01-0.05,0.04-0.07,0.18-0.07
				c0.13,0.05,6.82,1.32,7.05,1.31c0.26-0.01,0.26-0.06,0.29-0.19C158.97,267.13,159.46,264.38,159.45,264.3z"/>
			<path d="M181.27,289.64c-0.15-0.01-3.89-0.34-4.01-0.36c-0.14-0.04-0.23-0.1-0.33-0.2c-0.08-0.09-1.48-1.36-1.95-1.89
				c-0.51-0.48-1.79-1.78-1.84-1.84c-0.05-0.09-0.07-0.14-0.11-0.07c-0.04,0.13-0.28,0.89-0.51,1.53c-0.26,0.66-0.56,1.42-0.61,1.59
				c-0.08,0.2-0.08,0.2-0.32,0.2c-0.21,0.01-5.02-0.68-5.34-0.76c-0.23-0.03-0.34-0.1-0.49-0.29c-0.2-0.16-3.24-3.8-3.33-3.93
				c-0.09-0.15-0.08-0.25,0.01-0.43c0.16-0.18,7.48-17.59,7.45-17.74c0.07-0.12,0.13-0.14,0.35-0.13c0.24,0.05,4.79,0.64,5.14,0.69
				c0.35,0.07,0.42,0.18,0.71,0.46c0.26,0.3,3.21,3.67,3.4,3.87c0.2,0.23,0.19,0.26,0.25,0.53c0.05,0.27,0.47,3.2,0.8,5.86
				c0.38,2.64,1.23,8.33,1.25,8.54c0.04,0.24,0.03,0.27,0.04,0.53c-0.02,0.26-0.29,3.46-0.27,3.65
				C181.53,289.61,181.41,289.65,181.27,289.64z M177.48,285.17c0.01-0.05-0.45-4.05-1-8.22c-0.65-4.87-1.29-10.16-1.28-10.21
				c-0.01-0.11,0-0.26-0.1-0.28c-0.11,0-4.53-0.57-4.61-0.6c-0.05-0.01-0.08-0.01-0.13,0.14c0.03,0.15-7.13,17.12-7.29,17.27
				c-0.04,0.07-0.02,0.1,0.04,0.11c0.06,0.01,1.12,0.18,1.76,0.25c0.64,0.07,1.78,0.3,1.87,0.28c0.09,0.01,0.09-0.01,0.1-0.07
				c0.04-0.05,0.65-1.48,0.86-1.98c0.25-0.55,0.65-1.5,0.71-1.57c0.07-0.1,0.1-0.12,0.22-0.13c0.14,0.02,1.02,0.15,2.08,0.26
				c1.06,0.12,2.3,0.33,2.47,0.35c0.17,0.02,0.22,0.11,0.23,0.24c0.01,0.11,0.38,3.6,0.4,3.71c0.02,0.11-0.02,0.13,0.1,0.14
				c0.11,0.02,3.29,0.42,3.43,0.43C177.52,285.33,177.5,285.27,177.48,285.17z M173.13,277.75c0.03,0.19-0.2,0.19-0.37,0.19
				c-0.17-0.02-2.73-0.36-2.9-0.42c-0.06-0.01-0.25-0.04-0.2-0.24c0.09-0.2,0.8-2.07,1.22-3.1c0.4-1.04,1.09-2.88,1.22-3.21
				c0.13-0.33,0.28-0.23,0.29-0.04c0.03,0.22,0.26,2.11,0.44,3.83C172.98,276.4,173.12,277.59,173.13,277.75z"/>
			<path d="M203.4,290.8c0,0.16-0.06,0.26-0.3,0.26c-0.29,0.03-3.99-0.07-4.22-0.11c-0.21-0.01-0.32-0.04-0.49-0.15
				c-0.14-0.11-1-0.78-2.13-1.7c-1.18-0.98-2.19-1.7-2.3-1.81c-0.17-0.12-0.2-0.12-0.17-0.01c-0.01,0.11-0.14,2.68-0.15,3
				c0.01,0.32-0.2,0.38-0.37,0.4c-0.18,0.03-5.13-0.22-5.28-0.24c-0.12-0.01-0.17-0.07-0.31-0.16c-0.1-0.1-4.16-3.9-4.25-4.05
				c-0.1-0.19-0.12-0.28-0.11-0.41c0.01-0.11,0.76-10,0.87-11.18c0.14-1.63,0.52-5.16,0.64-6.26c0.05-0.21,0.18-0.75,0.19-0.86
				c0,0,0.11-0.28,0.22-0.32c0.09-0.04,0.31-0.08,0.47-0.06c0.19,0.02,3.6,0.31,3.82,0.32c0.16-0.01,0.24,0.04,0.29,0.13
				c0.08,0.06,0.4,0.48,0.67,0.89c0.3,0.44,0.54,0.88,0.64,1.02c0.05,0.13,0.07,0.14,0.19,0.01c0.15-0.09,1.71-1.44,1.85-1.59
				c0.14-0.12,0.17-0.17,0.37-0.19c0.22,0.03,6.08,0.3,6.27,0.26c0.16-0.02,0.27,0.04,0.43,0.2c0.17,0.2,3.23,3.09,3.35,3.16
				c0.11,0.13,0.11,0.16,0.1,0.29c0,0.13-0.01,0.26-0.01,0.47c0,0.16-0.03,0.21-0.17,0.34c-0.14,0.18-1.98,1.84-2.79,2.6
				c-0.74,0.69-3.06,2.78-3.18,2.85c-0.09,0.07-0.09,0.1-0.01,0.21c0.07,0.11,1.61,3.39,2.34,4.81c0.74,1.48,3.37,6.4,3.49,6.59
				c0.08,0.16,0.11,0.27,0.11,0.37C203.47,290.04,203.43,290.67,203.4,290.8z M198.51,286.56c-0.09-0.16-1.74-3.68-2.52-5.1
				c-0.7-1.4-3.55-7.56-3.58-7.72c-0.05-0.11-0.07-0.14,0.07-0.26c0.15-0.15,2.3-1.78,3.04-2.48c0.78-0.64,2.69-2.34,2.77-2.42
				c0.06-0.05,0.2-0.12-0.05-0.11c-0.24,0-4.1-0.21-4.27-0.22c-0.14-0.01-0.19-0.01-0.36,0.11c-0.14,0.15-0.9,0.87-1.65,1.45
				c-0.77,0.58-2.79,2.21-2.97,2.27c-0.11,0.04-0.17,0.09-0.16-0.12c0.02-0.21,0.02-0.21,0.02-0.21c0,0,0.04-0.58,0.15-1.6
				c0.14-1.07,0.21-2.04,0.22-2.15c0.03-0.1,0.01-0.13-0.13-0.14c-0.08-0.01-0.95-0.1-1.76-0.17c-0.87-0.05-1.82-0.13-1.88-0.14
				c-0.08,0.02-0.08,0.02-0.09,0.1c-0.01,0.1-0.46,5.19-0.62,6.71c-0.13,1.49-0.87,11.42-0.87,11.5c-0.01,0.08,0.02,0.13,0.11,0.12
				c0.09,0.01,3.53,0.3,3.61,0.3c0.09,0.01,0.14,0.04,0.15-0.09c-0.02-0.11,0.63-9.14,0.64-9.25c0.01-0.11,0.01-0.16,0.07-0.21
				c0.06-0.05,0.87-0.81,0.99-0.88c0.09-0.05,0.12-0.07,0.19,0.07c0.07,0.19,1.11,2.59,1.72,3.95c0.56,1.31,2.98,6.49,3.04,6.62
				c0.05,0.11,0.05,0.11,0.17,0.11c0.09,0.01,3.64,0.16,3.82,0.16C198.53,286.77,198.59,286.74,198.51,286.56z"/>
			<path d="M221.51,275.73c-0.02,0.18-0.02,0.21-0.18,0.24c-0.22,0.03-6.04,0.11-6.18,0.07c-0.2,0-0.2,0-0.11,0.11
				c0.11,0.13,2.44,3.01,2.5,3.09c0.09,0.1,0.09,0.13,0.09,0.24c0,0.13,0.16,2.97,0.17,3.1c0,0.1,0,0.16-0.05,0.21
				c-0.06,0.03-0.11,0.05-0.02,0.16c0.08,0.08,3.88,3.32,4.01,3.44c0.09,0.13,0.12,0.15,0.13,0.29c0.03,0.1,0.18,3.66,0.19,3.89
				c0.01,0.24-0.05,0.26-0.25,0.27c-0.23,0.08-12.42,0.36-12.57,0.29c-0.15,0-0.18-0.03-0.29-0.11c-0.13-0.07-3.95-3.36-4.02-3.45
				c-0.06-0.08-0.23-0.14-0.23-0.37c0-0.24,0.53-18.37,0.52-18.66c-0.02-0.18,0.06-0.24,0.3-0.26c0.22,0.02,11.55,0.06,11.74-0.01
				c0.16,0,0.22,0.02,0.35,0.1c0.13,0.08,3.42,2.73,3.6,2.87c0.17,0.15,0.12,0.18,0.12,0.36
				C221.31,271.76,221.51,275.52,221.51,275.73z M216.56,268.94c0-0.08,0.02-0.16-0.14-0.16c-0.13,0.03-10.4-0.02-10.53-0.08
				c-0.16,0-0.22,0.02-0.22,0.21c-0.01,0.21-0.6,17.95-0.54,18.08c0,0.13,0,0.13,0.14,0.14c0.15,0.04,11.44-0.04,11.67-0.11
				c0.17,0,0.14-0.08,0.11-0.19c-0.03-0.13-0.07-3.05-0.08-3.18c0-0.13-0.03-0.16-0.18-0.15c-0.17,0.06-7.34,0.1-7.51,0.08
				c-0.14-0.03-0.17-0.08-0.17-0.21c-0.03-0.16,0.01-3.45,0.01-3.58c-0.03-0.11,0.06-0.18,0.2-0.21c0.2-0.02,3.72-0.02,3.89-0.03
				c0.14,0,0.14-0.03,0.14-0.13c0-0.11,0.02-3.08,0.02-3.19c0.03-0.13,0.03-0.11-0.06-0.11c-0.08,0.01-3.9-0.04-4.04-0.05
				c-0.11,0-0.14-0.05-0.14-0.16c0-0.11-0.02-3.32-0.01-3.5c0-0.05,0.03-0.08,0.17-0.1c0.14,0.02,6.87-0.07,7.09-0.12
				c0.25-0.06,0.24-0.11,0.24-0.24C216.64,271.81,216.58,269.02,216.56,268.94z"/>
			<path d="M241.31,288.27c-0.02,0.13,0.02,0.18-0.1,0.41c-0.13,0.2-0.51,0.71-1.05,0.92c-0.48,0.23-1.73,0.27-2.08,0.3
				c-0.38,0.03-0.73,0.06-1.24-0.1c-0.55-0.16-3.86-2.12-4.13-2.35c-0.28-0.19-0.38-0.08-0.37,0.11c0.02,0.24,0.06,2.4,0.16,2.55
				c0.01,0.16-0.16,0.22-0.39,0.26c-0.23,0.02-4.03,0.23-4.14,0.23c-0.15,0.01-0.21-0.02-0.3-0.09c-0.1-0.07-4.02-3.12-4.13-3.23
				c-0.12-0.1-0.27-0.28-0.26-0.54c-0.02-0.24-0.83-18.12-0.8-18.33c-0.01-0.29,0.15-0.3,0.58-0.37c0.43-0.04,4.62-0.19,6.23-0.15
				c1.63,0.03,3.02,0.53,4.26,1.25c1.2,0.73,3.41,2.65,4.02,3.28c0.67,0.65,1.39,1.24,1.94,2.46c0.61,1.29,0.71,2.31,0.6,3.17
				c-0.11,0.88-0.83,1.93-0.95,2.08c-0.1,0.14-0.1,0.19,0,0.29c0.1,0.1,0.55,0.37,1.08,1.09c0.48,0.72,0.47,1.78,0.63,3.01
				C241.01,285.68,241.3,288.14,241.31,288.27z M236.97,283.59c-0.09-0.04-0.88-0.16-1.24-0.69c-0.36-0.47-0.37-0.66-0.47-1.49
				c-0.1-0.81-0.22-1.96-0.65-2.64c-0.39-0.66-0.97-1.19-1.06-1.32c-0.12-0.12-0.07-0.18-0.02-0.26c0.08-0.11,0.73-0.72,1-2.14
				c0.3-1.42-0.01-2.75-0.57-3.6c-0.59-0.85-1.46-2.05-2.97-2.66c-1.57-0.6-2.92-0.55-3.79-0.53c-0.87,0-3.93,0.09-4.09,0.1
				c-0.13,0.06-0.1,0.08-0.13,0.16c-0.02,0.16,0.32,6,0.44,9.28c0.09,3.21,0.4,8.63,0.41,8.78c0.01,0.13,0.01,0.26,0.18,0.26
				c0.17,0,3.14-0.15,3.29-0.16c0.14-0.03,0.23-0.04,0.19-0.22c-0.01-0.16-0.37-6.73-0.38-6.94c-0.01-0.21,0.07-0.21,0.21-0.25
				c0.11-0.03,2.29-0.32,3.05,0.08c0.74,0.45,1.16,0.85,1.25,2.05c0.12,1.21,0.24,3.28,1.01,3.97c0.72,0.71,1.28,0.86,1.97,0.78
				c0.72-0.08,1.29-0.13,1.89-0.92c0.56-0.81,0.55-1.21,0.59-1.4C237.12,283.63,237.12,283.63,236.97,283.59z M226.77,271.8
				c0.11-0.03,0.71-0.09,1.42-0.13c0.71-0.04,1.1,0.04,1.44,0.15c0.31,0.11,1.47,0.61,1.49,1.91c0.01,1.32-0.72,1.66-1.34,1.91
				c-0.65,0.28-2.24,0.27-2.58,0.26c-0.31,0.02-0.35-0.19-0.35-0.35c-0.01-0.16-0.27-3.36-0.26-3.55
				C226.59,271.86,226.67,271.84,226.77,271.8z"/>
			<path d="M270.31,283.98c0,0.13,0.04,0.18-0.06,0.42c-0.11,0.21-0.44,0.76-0.96,1.02c-0.45,0.28-1.7,0.43-2.05,0.5
				c-0.37,0.07-0.72,0.13-1.25,0.02c-0.56-0.11-4.05-1.74-4.34-1.94c-0.29-0.16-0.39-0.04-0.36,0.14c0.04,0.23,0.29,2.38,0.41,2.52
				c0.03,0.16-0.14,0.24-0.36,0.3c-0.23,0.05-3.98,0.61-4.1,0.62c-0.14,0.02-0.21,0-0.3-0.06c-0.11-0.06-4.3-2.72-4.42-2.82
				c-0.13-0.09-0.3-0.25-0.31-0.52c-0.04-0.23-2.55-17.96-2.55-18.17c-0.04-0.29,0.12-0.31,0.54-0.42c0.43-0.08,4.58-0.63,6.18-0.74
				c1.62-0.13,3.06,0.24,4.35,0.84c1.26,0.61,3.64,2.31,4.32,2.88c0.73,0.58,1.51,1.11,2.16,2.26c0.73,1.23,0.93,2.23,0.9,3.1
				c-0.02,0.89-0.64,2-0.75,2.16c-0.09,0.15-0.08,0.2,0.03,0.29c0.1,0.09,0.58,0.32,1.18,0.98c0.54,0.67,0.64,1.73,0.91,2.93
				C269.76,281.43,270.28,283.85,270.31,283.98z M265.54,279.74c-0.09-0.04-0.89-0.08-1.3-0.57c-0.4-0.44-0.43-0.62-0.61-1.44
				c-0.17-0.8-0.41-1.93-0.9-2.57c-0.45-0.61-1.08-1.09-1.19-1.21c-0.13-0.11-0.09-0.17-0.05-0.26c0.06-0.12,0.66-0.78,0.79-2.22
				c0.16-1.45-0.27-2.73-0.92-3.53c-0.67-0.79-1.64-1.9-3.21-2.36c-1.62-0.45-2.96-0.27-3.82-0.16c-0.86,0.08-3.9,0.47-4.06,0.49
				c-0.13,0.07-0.1,0.09-0.11,0.18c-0.01,0.16,0.89,5.94,1.33,9.2c0.39,3.19,1.22,8.55,1.24,8.71c0.02,0.13,0.04,0.26,0.21,0.24
				c0.17-0.02,3.11-0.45,3.25-0.47c0.14-0.05,0.22-0.06,0.17-0.24c-0.03-0.16-1.01-6.66-1.04-6.87c-0.03-0.21,0.05-0.22,0.19-0.27
				c0.11-0.04,2.25-0.53,3.04-0.21c0.78,0.38,1.24,0.73,1.44,1.93c0.23,1.19,0.55,3.24,1.39,3.85c0.78,0.64,1.36,0.73,2.03,0.59
				c0.7-0.15,1.27-0.25,1.79-1.1c0.48-0.86,0.43-1.26,0.46-1.45C265.69,279.77,265.69,279.77,265.54,279.74z M254.26,268.98
				c0.1-0.04,0.7-0.16,1.4-0.27c0.7-0.11,1.1-0.07,1.45,0.01c0.32,0.08,1.53,0.47,1.66,1.75c0.14,1.31-0.55,1.72-1.15,2.03
				c-0.62,0.34-2.2,0.48-2.54,0.5c-0.3,0.05-0.36-0.16-0.39-0.31c-0.02-0.16-0.59-3.32-0.59-3.5
				C254.08,269.06,254.16,269.02,254.26,268.98z"/>
			<path d="M287.89,277.66c0.1,0.49,0.07,1.15-0.34,2.13c-0.4,1-1.33,1.81-2.43,2.36c-1.13,0.53-3,0.9-4.17,1.03
				c-1.11,0.15-2,0.09-4.13-0.63c-2.13-0.72-3.84-1.81-4.78-2.48c-0.95-0.72-1.6-1.8-2.07-2.64c-0.47-0.87-0.83-3.62-1.24-5.79
				c-0.39-2.2-0.63-3.66-0.76-4.44c-0.13-0.78,0.01-1.88,0.5-2.89c0.46-1.01,1.59-2.58,3.59-3.18c2.02-0.63,3.44-0.35,4.13-0.16
				c0.65,0.17,2.33,0.75,3.5,1.3c1.18,0.55,2.2,1.24,2.89,1.69c0.7,0.5,1.34,0.99,2.1,2.12c0.72,1.09,1.13,2.86,1.93,5.95
				C287.39,275.12,287.83,277.21,287.89,277.66z M280.88,269.38c-0.53-2.04-0.82-3.19-1.15-4.19c-0.33-1-1.05-2.42-2.69-3.2
				c-1.67-0.77-2.92-0.81-4.36-0.43c-1.42,0.37-2.51,0.92-3.46,2.74c-0.62,1.15-0.83,2.45-0.69,3.29c0.13,0.75,0.32,1.55,0.77,4.03
				c0.46,2.51,0.8,4.3,1.01,5.03c0.2,0.68,0.74,1.78,2.23,2.55c1.46,0.8,2.68,1.21,4.64,0.61c1.92-0.54,2.67-0.99,3.54-2.19
				c0.85-1.26,1.31-2.7,1.14-3.88C281.65,272.58,281.39,271.45,280.88,269.38z M273.57,264.92c0.75-0.17,1.14-0.17,1.8,0.11
				c0.6,0.29,0.79,0.71,0.98,1.42c0.18,0.66,1.54,6.34,1.71,6.93c0.13,0.56,0.6,2.52-1.51,3.04c-2.11,0.5-2.46-0.94-2.69-1.46
				c-0.23-0.52-0.69-2.47-1.07-4.21c-0.41-1.74-0.63-2.75-0.69-3.16c-0.09-0.41-0.14-0.91,0.1-1.58
				C272.31,265.58,272.8,265.12,273.57,264.92z"/>
			<path d="M306.49,272.15c0.13,0.48,0.14,1.15-0.2,2.15c-0.33,1.02-1.22,1.89-2.28,2.51c-1.1,0.6-2.95,1.09-4.11,1.3
				c-1.1,0.22-1.99,0.22-4.17-0.36c-2.18-0.58-3.96-1.56-4.93-2.17c-0.99-0.66-1.72-1.69-2.24-2.5c-0.52-0.84-1.06-3.56-1.61-5.7
				c-0.53-2.17-0.86-3.61-1.04-4.38c-0.18-0.77-0.11-1.88,0.31-2.92c0.4-1.04,1.43-2.68,3.38-3.41c1.97-0.76,3.42-0.57,4.11-0.42
				c0.66,0.13,2.37,0.59,3.59,1.07c1.21,0.47,2.28,1.1,3,1.5c0.73,0.45,1.4,0.9,2.23,1.98c0.79,1.04,1.32,2.78,2.31,5.81
				C305.83,269.65,306.4,271.7,306.49,272.15z M298.95,264.34c-0.66-2-1.02-3.13-1.42-4.11c-0.4-0.98-1.21-2.35-2.9-3.02
				c-1.71-0.66-2.97-0.62-4.39-0.15c-1.39,0.46-2.45,1.08-3.29,2.95c-0.55,1.19-0.68,2.5-0.48,3.32c0.18,0.74,0.42,1.52,1.03,3.98
				c0.62,2.48,1.07,4.24,1.33,4.96c0.24,0.67,0.86,1.73,2.39,2.4c1.51,0.7,2.75,1.04,4.68,0.31c1.88-0.66,2.61-1.16,3.4-2.42
				c0.77-1.31,1.14-2.78,0.89-3.94C299.92,267.49,299.6,266.37,298.95,264.34z M291.36,260.37c0.74-0.21,1.13-0.25,1.8-0.01
				c0.62,0.25,0.83,0.66,1.07,1.36c0.22,0.65,1.95,6.23,2.15,6.8c0.17,0.55,0.76,2.47-1.32,3.14c-2.08,0.63-2.52-0.78-2.78-1.28
				c-0.26-0.5-0.84-2.42-1.34-4.14c-0.52-1.71-0.8-2.7-0.89-3.11c-0.12-0.41-0.2-0.9,0-1.59
				C290.14,261.1,290.6,260.61,291.36,260.37z"/>
			<path d="M330.76,266.03c0.14,0.4,0.02,0.56-0.2,0.66c-0.19,0.09-3.1,1.36-3.36,1.43c-0.25,0.1-0.27,0.05-0.5,0.03
				c-0.17-0.01-2.82-0.59-3.05-0.64c-0.21-0.06-0.34-0.06-0.27,0.11c0.01,0.19,0.29,1.36,0.31,1.63c0.06,0.23-0.01,0.29-0.2,0.36
				c-0.18,0.1-1.88,0.76-2.05,0.83c-0.16,0.06-0.31,0.09-0.51,0.06c-0.18-0.04-3.14-0.72-3.31-0.77c-0.2-0.04-0.24-0.05-0.18,0.1
				c0.04,0.18,0.42,1.44,0.48,1.68c0.06,0.23-0.1,0.32-0.32,0.4c-0.24,0.12-3.88,1.44-4.19,1.54c-0.33,0.12-0.42,0.06-0.68,0.02
				c-0.25-0.05-4.21-1.74-4.36-1.84c-0.18-0.08-0.31-0.2-0.39-0.42c-0.1-0.19-2.61-7.87-3.07-9.22c-0.43-1.35-2.72-8.39-2.76-8.6
				c-0.05-0.15-0.08-0.14,0.25-0.28c0.3-0.12,4.9-1.7,5.18-1.81c0.28-0.1,0.39-0.11,0.69-0.02c0.26,0.11,3.61,1.42,4.03,1.57
				c0.39,0.16,0.3,0.09,0.28-0.11c-0.03-0.16-0.21-2.62-0.24-2.92c-0.02-0.28,0-0.23,0.25-0.35c0.26-0.08,5.19-2.06,5.54-2.21
				c0.35-0.14,0.45-0.13,0.71,0c0.27,0.12,4.32,1.68,4.51,1.74c0.15,0.08,0.18,0.07,0.32,0.32
				C323.75,249.55,330.6,265.69,330.76,266.03z M321.22,256.13c-0.75-1.83-3.22-7.81-3.31-8.03c-0.1-0.19-0.04-0.18-0.3-0.08
				c-0.24,0.14-4.22,1.71-4.38,1.76c-0.2,0.08-0.21,0.14-0.2,0.25c0.05,0.13,0.6,9.35,0.6,9.59c0,0.25,0.02,0.38-0.32-0.05
				c-0.4-0.44-5.75-7.28-5.83-7.4c-0.07-0.12-0.11-0.07-0.27-0.02c-0.13,0.05-4.03,1.34-4.18,1.41c-0.18,0.06-0.23,0.08-0.19,0.2
				c0.06,0.17,2.59,8.13,3.07,9.72c0.52,1.6,0.87,2.71,1.15,3.53c0.25,0.81,1.3,3.67,1.35,3.82c0.08,0.14,0.09,0.36,0.28,0.29
				c0.16-0.08,2.88-1.16,3.02-1.21c0.14-0.05,0.23-0.05,0.16-0.25c-0.08-0.22-1.75-4.97-2.18-6.18c-0.4-1.2-1.53-4.46-1.67-4.77
				c-0.11-0.32,0.02-0.29,0.28,0.12c0.26,0.41,6,8.11,6.43,8.51c0.35,0.43,0.66,0.94,0.73,1.05c0.04,0.1,0,0.17,0.19,0.1
				c0.16-0.06,1.72-0.7,1.84-0.71c0.11-0.04,0.15,0,0.12-0.24c-0.01-0.28-0.24-3.79-0.36-6.12c-0.1-2.3-0.29-5.25-0.36-5.65
				c-0.03-0.38-0.03-0.53,0.17-0.04c0.19,0.49,4.03,10.27,4.15,10.48c0.08,0.2,0.11,0.18,0.24,0.13c0.16-0.06,0.16-0.06,0.16-0.06
				c0,0,2.91-1.18,3.03-1.26c0.16-0.07,0.17-0.04,0.11-0.19C324.73,264.68,321.99,258.01,321.22,256.13z"/>
		</g>
	</g>
	<path class="st7" d="M157.06,101.62c-1.2,0.19-2.19-0.32-3.25-0.81c-1.43-0.67-2.89-0.62-4.18,0.52c-1.31,1.15-1.44,2.63-0.96,4.11
		c0.5,1.55,1.71,2.41,3.38,2.48c2.22,0.09,3.87,1.3,5.44,2.7c-1.29,0.73-2.49,1.56-2.83,3.12c-0.08,0.37-0.08,0.79-0.53,0.71
		c-3.42-0.6-4.3,2.28-6.13,4.55c-0.14-2.53-1.54-1.34-2.21-0.81c-1.83,1.46-3.51,1.65-5.61-0.51c0.99,3.54-1.6,3.61-3.17,4.55
		c-1.76,1.05-4.74,0.56-4.52,3.98c-2.09-1.67-4.88-0.63-5.63,1.84l-0.06,0.07c-0.85,0.34-0.52-1.2-1.58-0.89
		c-0.85,0.24-0.65,1.42-1.64,1.35c-4.35-0.33-7.41,3.2-11.53,3.88c-2.7,0.45-5.08,2.49-7.76,3.52c-1.37,0.53-1.96,2.58-3.91,2.25
		c0.54,1.81-0.31,1.7-1.75,1.53c-3.84-0.46-7.34-1.98-10.88-3.3c-7.08-2.65-13.8-6.11-20.6-9.39c-5.14-2.47-10.06-5.32-15.13-7.91
		c-0.76-0.39-1.17-0.69-0.77-1.57c1.03-2.32,1.45-4.82,2.02-7.27c0.92-3.97,0.92-3.97,5.1-3.97c0.8,0,1.62,0.13,2.38-0.03
		c2.57-0.54,5.63,0.91,7.69-1.88c0.24-0.33,1.02-0.1,0.79,0.49c-0.69,1.75,0.73,0.81,1.09,0.8c0.86-0.02,1.72-0.37,2.59-0.42
		c7.02-0.43,13.9-1.94,20.83-2.98c6.39-0.96,12.6-3.02,18.97-4.13c1.86-0.32,3.15-1.67,5.4-1.59c2.5,0.09,5.41-0.51,8.06-1.76
		c2.01-0.95,4.56-2.33,7.15-0.5c1.19,0.84,1.45-0.26,1.47-1.25c0,0,0.01-0.01,0.01-0.01c0.31-0.16,0.61-0.36,0.94-0.47
		c4.55-1.42,9.04-3.17,13.7-4.09c2.01-0.4,5.04-2.51,6.64,1.24c0.33,0.77,0.33,1.5,0.46,2.26C157.1,95.2,156.88,98.42,157.06,101.62
		z M150.42,94.14c1.56-1.12,0.69-2.19-0.22-3.01c-1.07-0.96-2.3-0.82-3.22,0.34c-0.88,1.11-0.89,2.35,0.17,3.3
		c0.94,0.84,2.1,1.49,2.99-0.19C150.23,94.43,150.33,94.28,150.42,94.14z"/>
	<path class="st7" d="M35.01,179.45c1.57-4.19,1.48-8.58,2.74-12.77c1.46-4.84,2.26-9.87,3.25-14.85c0.47-2.37,1.42-4.58,2.06-6.89
		c0.34-1.24,1.92-1.11,2.43-2.17c1.02,0.5,1.16,1.3,1.03,2.36c-0.06,0.56,0.52,0.75,1.06,0.43c0.44-0.26,0.52-1.2,1.26-0.82
		c0.83,0.43-0.15,0.96-0.06,1.41c0.2,0.94,4.86,3.66,6.02,3.4c1.36-0.3,1.95-0.11,1.49,1.39c-0.28,0.9,0.36,1.36,0.99,1.26
		c1.54-0.25,3.48,0.79,3.64,1.29c0.86,2.66,3.84,1.58,5.09,3.29c0.27,0.37,0.6,0.48,0.49,1.15c-0.13,0.85,0.82,1.69,1.53,1.35
		c1.71-0.79,2.9,0.69,3.17,1.33c1.07,2.51,3.87,2.61,5.36,4.44c1.69,2.06,4.83,1.87,6.51,4.03c0.95,1.22,1.91,2.42,1.73,4.12
		c-0.03,0.3-0.09,0.81,0.06,0.89c2.04,1.18,0.97,3,0.95,4.58c-0.01,0.79-0.84,1.69,0.96,1.66c1.06-0.02,3.03,6.15,2.47,7.15
		c-0.82,1.44-0.71,1.42,0.54,2.45c0.91,0.76,0.75,2.04,0.15,2.86c-0.77,1.05-0.43,1.77,0.41,2.18c1.64,0.82,1.86,2.77,1.43,3.58
		c-0.7,1.31-1.7,2.89-4.23,1.96c-5.92-2.2-12.14-3.59-18.23-5.22c-7.6-2.04-15.06-4.6-22.8-6.18c-2.56-0.52-5.07-1.45-7.57-2.19
		C35.53,185.9,36,182.16,35.01,179.45z M69.32,160.91c-0.07-0.03-0.13-0.07-0.2-0.1c0.06,0.04,0.13,0.08,0.19,0.11
		c0.07,0.03,0.13,0.07,0.2,0.1C69.44,160.99,69.38,160.95,69.32,160.91z M84.82,177.16c-0.09,0.1-0.18,0.21-0.26,0.31
		c0.11,0.04,0.22,0.1,0.34,0.12c0.04,0.01,0.14-0.13,0.13-0.16C84.98,177.33,84.89,177.25,84.82,177.16z M55.44,150.54
		c-0.01,0.11-0.02,0.21-0.03,0.32c0.04-0.05,0.11-0.1,0.12-0.15C55.53,150.66,55.47,150.6,55.44,150.54z"/>
	<path class="st7" d="M182.96,222.93c6.86-8.31,12.2-17.12,17.18-26.15c1.51-2.73,2.76-5.6,4.1-8.42c0.62-1.31,0.85-2.23,2.76-0.92
		c6.16,4.21,12.57,8.03,19.36,11.19c1.43,0.67,3.73,0.28,4.13,1.96c0.18,0.76-1.77,2.04-2.77,3.08
		c-4.96,5.18-10.07,10.19-15.22,15.18c-1.51,1.46-3.02,2.94-4.5,4.44c-1.48,1.5-2.66,1.92-4.86,1.46c-2.09-0.43-4.4-0.51-6.61-0.57
		C192.14,224.06,187.8,223.55,182.96,222.93z"/>
	<path class="st7" d="M301.15,201.76c1.18-0.29,0.97-2.61,2.23-2.09c1.71,0.72,2.42-0.49,3.52-1.04l0.01-0.01
		c1.29-0.61,2.81-1.08,1.67-3.05c-0.08-0.14,0.25-0.68,0.51-0.82c0.74-0.38,0.46,0.55,0.62,0.6c2,0.62,3.16,2.03,4.15,3.81
		c2,3.61,1.05,7.81-2.72,9.54c-4.69,2.16-9.38,4.31-14.24,6.11c-9.23,3.42-18.75,5.72-28.37,7.62c-7.85,1.55-15.73,2.8-23.74,3.46
		c-8.14,0.66-16.26,1-24.41,0.92c-0.49,0-1.07,0.18-1.65-0.78c4.38-4.27,8.83-8.59,13.27-12.94c1.32-1.29,1.76,0.3,2.01,0.83
		c0.73,1.56,1.89,1.99,3.43,1.93c-0.18,0.18-0.66,0.28-0.19,0.66c0.06-0.22,0.13-0.44,0.19-0.66c0.34,0.04,0.98,0.1,0.98,0.11
		c-0.35,4.15,2.65,1.64,4.13,2.06c1.23,0.35,2.65-1.52,3.81,0.3c0.05,0.08,0.59,0.02,0.7-0.12c1.23-1.76,3.49-1.67,5.02-2.87
		c0,0,0,0,0,0c0.52-0.35,1.05-0.7,1.57-1.04l0,0c0.79-0.53,1.5-0.93,1.31-2.22c-0.26-1.76,0.49-2.11,2.39-2.15
		c1.32-0.02,2.19-1.6,3.66-1.55c-0.12-0.48-0.23-0.96-0.39-1.62c2.48,1.14,4.66,1.35,6.99-0.48c1.23-0.96,2.82,0.85,4.42,0.91
		c0.73,0.03,1.39,0.3,1.73-0.42c0.94-2.01,2.21-0.94,3.42-0.45c0.29,0.12,0.59,0.63,0.75,0.58c1.46-0.48,2.65-2.18,4.54-0.7
		c0.22,0.17-0.97-1.02-0.15-1.67c0.88-0.34,1.42,0.49,1.98,0.84c1.03,0.65,1.12,0.84,1.55-0.59c0.3-1,2.58-1.47,3.32-0.83
		c1.07,0.93,1.98,0.67,2.81,0.37c1.29-0.48,2.44-1.25,3.93-1.01c0.77,0.12,0.71-0.46,0.65-1.04c-0.06-0.61,0.25-1.16,0.84-0.48
		C298.71,203.33,299.91,202.2,301.15,201.76z"/>
	<g>
		<g>
			<path d="M169.94,127.28c8.06-12,16.63-24.42,28.39-33.11c5.68-4.19,12.06-7.38,19-8.81c3.27-0.67,8.08-1.21,10.13,2.14
				c0.61,0.99,1,2.38,0.45,3.48c-0.76,1.53-2.92,1.96-4.45,2.24c-7.61,1.4-14.89-3.12-20.15-8.17c-5.52-5.3-9.31-11.96-13.6-18.23
				c-4.09-5.97-8.71-11.84-15.02-15.59c-7.03-4.18-15.29-5.01-23.27-5.75c-19.19-1.78-38.38-3.54-57.57-5.31
				c-9.27-0.85-18.68-2.23-28.01-2.05c-7.74,0.15-15.69,1.78-22.01,6.48c-6.27,4.66-9.66,11.46-9.72,19.28
				c-0.08,8.7,3.08,17.12,4.99,25.51c1.03,4.52,1.9,9.07,2.6,13.66c0.54,3.56,0.99,7.38,0.01,10.91c-0.76,2.75-2.48,5.18-5.49,5.45
				c-1.83,0.17-4.6-0.37-5.42-2.29c-1.31-3.05,3.1-5.35,5.33-6.05c3.5-1.1,7.24-0.78,10.66,0.42c7.32,2.58,12.07,9.46,14.51,16.53
				c5.58,16.22,1.75,34.29-6.05,49.09c-3.87,7.35-8.71,14.16-14.04,20.51c-2.67,3.18-5.49,6.21-8.3,9.26
				c-2.62,2.84-5.17,5.85-6.57,9.5c-2.77,7.2,0.81,14.65,6.27,19.47c5.34,4.72,12.27,7.3,19.29,8.08
				c6.99,0.78,14.16-0.43,20.55-3.34c5.72-2.61,14.44-8.17,13.35-15.53c-0.47-3.17-2.93-6.15-6.33-6.16
				c-3.38-0.01-5.82,2.77-7.2,5.58c-1.75,3.56-2.75,7.65-3.46,11.54c-0.74,4.07-1.09,8.23-0.79,12.36
				c0.57,7.82,3.42,15.04,8.36,21.12c4.63,5.7,10.82,10.14,17.43,13.25c7.84,3.7,16.32,5.71,24.84,7.07
				c9.07,1.45,18.23,2.43,27.36,3.43c18.69,2.05,37.43,3.68,56.2,4.77c18.83,1.1,37.78,1.48,56.57-0.53
				c16.75-1.79,33.35-5.48,48.92-12.02c7.72-3.24,15.16-7.15,22.1-11.85c5.83-3.95,12.08-9.05,11.08-16.88
				c-0.76-5.9-5.26-11.4-11.29-12.38c0.37,0.92,0.75,1.84,1.12,2.75c2.21-3.04,7.15-3.4,9.87-0.9c1.77,1.63,4.43-1.01,2.65-2.65
				c-4.62-4.24-12.11-3.36-15.76,1.66c-0.67,0.92-0.01,2.57,1.12,2.75c5.87,0.95,10.18,7.57,8.18,13.33c-1.21,3.48-4.41,5.96-7.31,8
				c-3.35,2.36-6.84,4.53-10.42,6.52c-14.59,8.12-30.72,13.18-47.11,16.07c-18.11,3.19-36.6,3.66-54.93,3.07
				c-18.75-0.6-37.49-2.12-56.16-3.92c-9.27-0.9-18.52-1.9-27.76-3.02c-8.74-1.06-17.54-2.13-26.06-4.44
				c-14.25-3.87-29.03-12.44-33.74-27.35c-2.59-8.18-1.81-17.04,0.58-25.17c0.76-2.57,1.83-7.27,4.79-8.27
				c1.27-0.43,2.37,0.27,2.98,1.39c0.86,1.58,0.54,3.32-0.31,4.83c-1.77,3.12-5.22,5.4-8.29,7.1c-3.09,1.72-6.44,2.9-9.9,3.61
				c-6.73,1.37-13.95,0.77-20.3-1.89c-6.13-2.56-12.81-7.77-13.66-14.84c-0.47-3.88,1.35-7.4,3.69-10.35
				c2.51-3.18,5.47-6.01,8.15-9.04c10.97-12.42,20.55-26.63,24.6-42.91c3.73-15,3.18-33.82-7.64-45.95
				c-4.86-5.44-12.21-8.84-19.57-7.96c-3.51,0.42-7.25,1.78-9.6,4.54c-1.88,2.21-2.61,5.37-1.07,7.97
				c2.74,4.64,10.22,5.04,14.06,1.69c5.61-4.9,4.39-13.64,3.35-20.13c-1.42-8.89-3.85-17.46-5.86-26.21
				c-1.78-7.75-2.65-16.52,2.66-23.14c10.95-13.65,31.9-9.43,46.91-8.04c18.98,1.75,37.96,3.5,56.95,5.25
				c8.24,0.76,17.2,0.9,24.79,4.57c6.54,3.16,11.27,8.78,15.34,14.64c8.16,11.75,16.48,27.23,32.34,29.13
				c3.45,0.42,7.67,0.11,10.66-1.84c2.91-1.9,3.62-5.43,2.3-8.53c-3.17-7.45-12.78-5.79-18.95-3.89
				c-13.72,4.22-24.48,14.46-33.24,25.45c-4.39,5.51-8.41,11.3-12.34,17.15C165.36,127.4,168.6,129.28,169.94,127.28L169.94,127.28z
				"/>
		</g>
	</g>
</g>
</svg>
